<svg width="20" height="20" viewBox="0 0 20 20" fill="none" xmlns="http://www.w3.org/2000/svg">
<path d="M12.067 2.84839L11.3294 2.71305L12.067 2.84839ZM7.93327 2.84839L8.67096 2.71305L7.93327 2.84839ZM8.66682 2.66677C8.66682 2.52869 8.77876 2.41675 8.91685 2.41675V0.916748C7.95034 0.916748 7.16682 1.70026 7.16682 2.66677H8.66682ZM8.67096 2.71305C8.66831 2.69859 8.66682 2.68318 8.66682 2.66677H7.16682C7.16682 2.7744 7.17663 2.88039 7.19559 2.98373L8.67096 2.71305ZM6.83352 3.75003H7.81659V2.25003H6.83352V3.75003ZM6.5835 4.00006C6.5835 3.86197 6.69544 3.75003 6.83352 3.75003V2.25003C5.86701 2.25003 5.0835 3.03354 5.0835 4.00006H6.5835ZM6.83352 4.25008C6.69544 4.25008 6.5835 4.13814 6.5835 4.00006H5.0835C5.0835 4.96657 5.86701 5.75008 6.83352 5.75008V4.25008ZM13.1668 4.25008H6.83352V5.75008H13.1668V4.25008ZM13.4168 4.00006C13.4168 4.13814 13.3049 4.25008 13.1668 4.25008V5.75008C14.1333 5.75008 14.9168 4.96657 14.9168 4.00006H13.4168ZM13.1668 3.75003C13.3049 3.75003 13.4168 3.86197 13.4168 4.00006H14.9168C14.9168 3.03355 14.1333 2.25003 13.1668 2.25003V3.75003ZM12.1837 3.75003H13.1668V2.25003H12.1837V3.75003ZM11.3335 2.66677C11.3335 2.68318 11.332 2.69859 11.3294 2.71305L12.8047 2.98373C12.8237 2.88039 12.8335 2.7744 12.8335 2.66677H11.3335ZM11.0835 2.41675C11.2216 2.41675 11.3335 2.52869 11.3335 2.66677H12.8335C12.8335 1.70026 12.05 0.916748 11.0835 0.916748V2.41675ZM8.91685 2.41675H11.0835V0.916748H8.91685V2.41675ZM12.1837 2.25003C12.6553 2.25003 12.8604 2.68042 12.8047 2.98373L11.3294 2.71305C11.246 3.16719 11.5588 3.75003 12.1837 3.75003V2.25003ZM7.19559 2.98373C7.13994 2.68042 7.34504 2.25003 7.81659 2.25003V3.75003C8.4415 3.75003 8.75428 3.16719 8.67096 2.71305L7.19559 2.98373Z" fill="#667085"/>
<path d="M5.84733 4.16675L6.58699 4.04264L6.48197 3.41675H5.84733V4.16675ZM14.153 4.16675V3.41675H13.5184L13.4134 4.04264L14.153 4.16675ZM5.10767 4.29086C5.24663 5.11908 5.96565 5.75008 6.83352 5.75008V4.25008C6.71038 4.25008 6.60673 4.16032 6.58699 4.04264L5.10767 4.29086ZM6.83352 5.75008H13.1668V4.25008H6.83352V5.75008ZM13.1668 5.75008C14.0347 5.75008 14.7537 5.11909 14.8927 4.29085L13.4134 4.04264C13.3936 4.16032 13.29 4.25008 13.1668 4.25008V5.75008ZM14.153 4.91675H14.4446V3.41675H14.153V4.91675ZM14.4446 4.91675C15.2577 4.91675 15.9168 5.57588 15.9168 6.38897H17.4168C17.4168 4.74746 16.0861 3.41675 14.4446 3.41675V4.91675ZM15.9168 6.38897V16.1112H17.4168V6.38897H15.9168ZM15.9168 16.1112C15.9168 16.9243 15.2577 17.5834 14.4446 17.5834V19.0834C16.0861 19.0834 17.4168 17.7527 17.4168 16.1112H15.9168ZM14.4446 17.5834H5.55572V19.0834H14.4446V17.5834ZM5.55572 17.5834C4.74263 17.5834 4.0835 16.9243 4.0835 16.1112H2.5835C2.5835 17.7527 3.9142 19.0834 5.55572 19.0834V17.5834ZM4.0835 16.1112V6.38897H2.5835V16.1112H4.0835ZM4.0835 6.38897C4.0835 5.57589 4.74263 4.91675 5.55572 4.91675V3.41675C3.9142 3.41675 2.5835 4.74746 2.5835 6.38897H4.0835ZM5.55572 4.91675H5.84733V3.41675H5.55572V4.91675Z" fill="#667085"/>
<path d="M9.16699 9.16675L14.167 9.16675" stroke="#667085" stroke-width="1.5" stroke-linecap="round"/>
<path d="M5.8335 9.16675H6.66683" stroke="#667085" stroke-width="1.5" stroke-linecap="round"/>
<path d="M9.16699 11.6667L14.167 11.6667" stroke="#667085" stroke-width="1.5" stroke-linecap="round"/>
<path d="M5.8335 11.6667H6.66683" stroke="#667085" stroke-width="1.5" stroke-linecap="round"/>
<path d="M9.16699 14.1667L14.167 14.1667" stroke="#667085" stroke-width="1.5" stroke-linecap="round"/>
<path d="M5.8335 14.1667H6.66683" stroke="#667085" stroke-width="1.5" stroke-linecap="round"/>
</svg>
