<svg width="50" height="50" viewBox="0 0 50 50" fill="none" xmlns="http://www.w3.org/2000/svg">
<path fill-rule="evenodd" clip-rule="evenodd" d="M32.6309 7.86119C28.9377 6.21557 24.8114 5.8079 20.8675 6.69896C16.9237 7.59003 13.3735 9.7321 10.7465 12.8057C8.11944 15.8793 6.55636 19.7198 6.29032 23.7543C6.02429 27.7888 7.06955 31.8013 9.27023 35.1932C11.4709 38.5851 14.7091 41.1748 18.5018 42.576C22.2945 43.9773 26.4386 44.1149 30.316 42.9685C34.1933 41.8221 37.5962 39.453 40.0172 36.2146C42.4381 32.9762 43.7474 29.042 43.7497 24.9987V23.0832C43.7497 21.9326 44.6824 20.9999 45.833 20.9999C46.9836 20.9999 47.9164 21.9326 47.9164 23.0832V24.9999C47.9135 29.9417 46.3133 34.7514 43.3544 38.7094C40.3955 42.6675 36.2364 45.563 31.4974 46.9642C26.7584 48.3654 21.6934 48.1971 17.0578 46.4845C12.4223 44.7719 8.46451 41.6067 5.77479 37.461C3.08508 33.3153 1.80753 28.4112 2.13268 23.4801C2.45784 18.549 4.36827 13.8552 7.57907 10.0985C10.7899 6.34191 15.129 3.72382 19.9493 2.63474C24.7696 1.54566 29.8128 2.04393 34.3268 4.05524C35.3778 4.52353 35.8501 5.75515 35.3818 6.80613C34.9135 7.85712 33.6819 8.32948 32.6309 7.86119Z" fill="white"/>
<path fill-rule="evenodd" clip-rule="evenodd" d="M47.3051 6.85946C48.1191 7.67264 48.1197 8.99174 47.3066 9.80574L26.4732 30.6599C26.0826 31.0509 25.5526 31.2707 24.9999 31.2708C24.4472 31.271 23.917 31.0515 23.5262 30.6606L17.2762 24.4106C16.4626 23.597 16.4626 22.278 17.2762 21.4644C18.0898 20.6508 19.4089 20.6508 20.2225 21.4644L24.9986 26.2405L44.3588 6.86093C45.172 6.04693 46.4911 6.04627 47.3051 6.85946Z" fill="white"/>
</svg>
