<svg width="20" height="20" viewBox="0 0 20 20" fill="none" xmlns="http://www.w3.org/2000/svg">
<path d="M14.9998 10.8332V11.5832H15.7498V10.8332H14.9998ZM14.728 5.54438L14.1819 6.05841V6.05841L14.728 5.54438ZM11.3744 1.98114L10.8282 2.49516V2.49516L11.3744 1.98114ZM2.4165 4.6665C2.4165 3.42386 3.42386 2.4165 4.6665 2.4165V0.916504C2.59544 0.916504 0.916504 2.59544 0.916504 4.6665H2.4165ZM2.4165 15.3332V4.6665H0.916504V15.3332H2.4165ZM4.6665 17.5832C3.42386 17.5832 2.4165 16.5758 2.4165 15.3332H0.916504C0.916504 17.4042 2.59543 19.0832 4.6665 19.0832V17.5832ZM8.85786 17.5832H4.6665V19.0832H8.85786V17.5832ZM8.85786 17.5832C8.52206 17.5832 8.24984 17.311 8.24984 16.9751H6.74984C6.74984 18.1394 7.69363 19.0832 8.85786 19.0832V17.5832ZM8.24984 16.9751V12.1912H6.74984V16.9751H8.24984ZM8.24984 12.1912C8.24984 11.8554 8.52206 11.5832 8.85786 11.5832V10.0832C7.69363 10.0832 6.74984 11.027 6.74984 12.1912H8.24984ZM8.85786 11.5832H14.9998V10.0832H8.85786V11.5832ZM14.2498 6.22975V10.8332H15.7498V6.22975H14.2498ZM14.1819 6.05841C14.2255 6.10478 14.2498 6.16606 14.2498 6.22975H15.7498C15.7498 5.78396 15.5797 5.35498 15.2742 5.03036L14.1819 6.05841ZM10.8282 2.49516L14.1819 6.05841L15.2742 5.03036L11.9205 1.46712L10.8282 2.49516ZM10.6462 2.4165C10.7151 2.4165 10.781 2.44497 10.8282 2.49516L11.9205 1.46712C11.5898 1.11574 11.1287 0.916504 10.6462 0.916504V2.4165ZM4.6665 2.4165H10.6462V0.916504H4.6665V2.4165Z" fill="#667085"/>
<path d="M10.833 1.90793C10.833 1.81883 10.9407 1.77422 11.0037 1.83721L14.829 5.66246C14.892 5.72546 14.8473 5.83317 14.7583 5.83317H13.833C12.1762 5.83317 10.833 4.49002 10.833 2.83317V1.90793Z" stroke="#667085" stroke-width="1.5"/>
<rect x="7.5" y="10.833" width="10.8333" height="7.5" rx="1.35802" stroke="#667085" stroke-width="1.5"/>
<path d="M7.5 13.333L18.3333 13.333" stroke="#667085" stroke-width="1.5" stroke-linecap="round"/>
<path d="M10 15.833H11.6667" stroke="#667085" stroke-width="1.5" stroke-linecap="round"/>
</svg>
