<svg width="19" height="18" viewBox="0 0 19 18" fill="none" xmlns="http://www.w3.org/2000/svg">
<path d="M12.8375 10.95L9.83751 13.2C9.63751 13.35 9.36251 13.35 9.16251 13.2L6.16251 10.95C5.91398 10.7636 5.86361 10.411 6.05001 10.1625C6.23641 9.91397 6.58898 9.8636 6.83751 10.05L8.93751 11.625V1.5C8.93751 1.18934 9.18935 0.9375 9.50001 0.9375C9.81067 0.9375 10.0625 1.18934 10.0625 1.5V11.625L12.1625 10.05C12.411 9.8636 12.7636 9.91397 12.95 10.1625C13.1364 10.411 13.086 10.7636 12.8375 10.95Z" fill="#0C3A5E"/>
<path d="M5.75 6.1875L5.35502 6.1875C4.84778 6.1875 4.43861 6.18749 4.10561 6.21021C3.76319 6.23358 3.46041 6.28283 3.1737 6.40159C2.48456 6.68704 1.93704 7.23456 1.65159 7.9237C1.53283 8.21041 1.48358 8.51319 1.46021 8.85561C1.43749 9.18861 1.4375 9.59778 1.4375 10.105V12.395C1.4375 12.9022 1.43749 13.3114 1.46021 13.6444C1.48358 13.9868 1.53283 14.2896 1.65159 14.5763C1.93704 15.2654 2.48456 15.813 3.1737 16.0984C3.46041 16.2172 3.76319 16.2664 4.10561 16.2898C4.43861 16.3125 4.84778 16.3125 5.35502 16.3125H13.645C14.1522 16.3125 14.5614 16.3125 14.8944 16.2898C15.2368 16.2664 15.5396 16.2172 15.8263 16.0984C16.5154 15.813 17.063 15.2654 17.3484 14.5763C17.4672 14.2896 17.5164 13.9868 17.5398 13.6444C17.5625 13.3114 17.5625 12.9022 17.5625 12.395V10.105C17.5625 9.59778 17.5625 9.18861 17.5398 8.85561C17.5164 8.51319 17.4672 8.21041 17.3484 7.9237C17.063 7.23456 16.5154 6.68704 15.8263 6.40159C15.5396 6.28283 15.2368 6.23358 14.8944 6.21021C14.5614 6.18749 14.1522 6.1875 13.645 6.1875L13.25 6.1875C12.9393 6.1875 12.6875 6.43934 12.6875 6.75C12.6875 7.06066 12.9393 7.3125 13.25 7.3125H13.625C14.1569 7.3125 14.5276 7.3128 14.8178 7.3326C15.1029 7.35206 15.269 7.38844 15.3958 7.44095C15.8093 7.61222 16.1378 7.94074 16.309 8.35422C16.3616 8.481 16.3979 8.64705 16.4174 8.93219C16.4372 9.22238 16.4375 9.59312 16.4375 10.125V12.375C16.4375 12.9069 16.4372 13.2776 16.4174 13.5678C16.3979 13.8529 16.3616 14.019 16.309 14.1458C16.1378 14.5593 15.8093 14.8878 15.3958 15.059C15.269 15.1116 15.1029 15.1479 14.8178 15.1674C14.5276 15.1872 14.1569 15.1875 13.625 15.1875H5.375C4.84312 15.1875 4.47238 15.1872 4.18219 15.1674C3.89705 15.1479 3.731 15.1116 3.60422 15.059C3.19074 14.8878 2.86222 14.5593 2.69095 14.1458C2.63844 14.019 2.60206 13.8529 2.5826 13.5678C2.5628 13.2776 2.5625 12.9069 2.5625 12.375V10.125C2.5625 9.59312 2.5628 9.22238 2.5826 8.93219C2.60206 8.64705 2.63844 8.481 2.69095 8.35422C2.86222 7.94074 3.19074 7.61222 3.60422 7.44095C3.731 7.38844 3.89705 7.35206 4.18219 7.3326C4.47238 7.3128 4.84312 7.3125 5.375 7.3125H5.75C6.06066 7.3125 6.3125 7.06066 6.3125 6.75C6.3125 6.43934 6.06066 6.1875 5.75 6.1875Z" fill="#0C3A5E"/>
</svg>
