<svg width="102" height="102" viewBox="0 0 102 102" fill="none" xmlns="http://www.w3.org/2000/svg">
<path d="M61.3679 2.47406C54.3627 0.726699 46.9915 0.477011 39.8189 2.02543C39.2646 2.14509 38.9123 2.69146 39.0319 3.24577C39.1516 3.80008 39.698 4.15244 40.2523 4.03277C47.1213 2.5499 54.1971 2.7944 60.9275 4.48128C77.0229 8.51536 90.4203 20.6168 95.523 36.4247C97.4964 42.538 98.3347 49.0476 98.5026 55.8698C98.5165 56.4367 98.9874 56.885 99.5543 56.871C100.121 56.8571 100.569 56.3862 100.556 55.8193C100.385 48.9035 99.5372 42.2264 97.5151 35.9113C92.2159 19.3617 78.2134 6.67602 61.3679 2.47406Z" fill="#23CCB7"/>
<path d="M34.6082 5.58067C35.1548 5.42987 35.4757 4.86446 35.3249 4.31779C35.1741 3.77113 34.6087 3.45023 34.062 3.60104C26.561 5.67036 16.0092 12.8206 9.48811 22.3728C9.48557 22.3765 9.48305 22.3802 9.48056 22.384C3.75461 31.013 0.165244 41.8569 1.16738 52.3794C1.16834 52.3894 1.16944 52.3994 1.17069 52.4094C1.41086 54.3308 1.81405 56.2486 2.21772 58.1686C3.06791 62.2126 3.9202 66.2666 3.25589 70.3849C3.16558 70.9448 3.54622 71.4718 4.10606 71.5621C4.66591 71.6525 5.19296 71.2718 5.28327 70.712C5.97769 66.407 5.11543 62.2079 4.253 58.0079C3.85415 56.0655 3.45526 54.123 3.21029 52.1697C2.26776 42.2267 5.6627 31.854 11.188 23.5251C17.461 14.3395 27.619 7.50878 34.6082 5.58067Z" fill="#23CCB7"/>
<path d="M48.0824 7.87477C60.9737 7.08755 73.8625 12.3487 82.5183 22.428C82.8878 22.8583 82.8385 23.5065 82.4083 23.876C81.9781 24.2454 81.3298 24.1962 80.9604 23.766C72.729 14.1809 60.4642 9.17412 48.2013 9.92491C48.1969 9.92518 48.1926 9.92542 48.1882 9.92563C32.6803 10.676 18.1569 21.1964 12.815 35.938C12.6218 36.4712 12.033 36.7468 11.4998 36.5536C10.9666 36.3604 10.691 35.7715 10.8842 35.2384C16.5118 19.7086 31.7622 8.66721 48.0824 7.87477Z" fill="#23CCB7"/>
<path d="M85.6465 26.9138C85.3303 26.4431 84.6924 26.3177 84.2216 26.6339C83.7508 26.95 83.6255 27.588 83.9417 28.0587C88.7402 35.2038 90.7242 42.979 91.5086 52.2058C91.5566 52.7708 92.0536 53.1899 92.6187 53.1419C93.1837 53.0939 93.6029 52.5969 93.5548 52.0318C92.7533 42.6034 90.7072 34.4493 85.6465 26.9138Z" fill="#23CCB7"/>
<path d="M92.8684 56.3912C93.4343 56.3559 93.9218 56.786 93.9572 57.352C94.3442 63.5436 94.3478 70.5487 93.6628 75.7255C93.5885 76.2876 93.0724 76.6831 92.5102 76.6087C91.948 76.5343 91.5526 76.0183 91.627 75.4561C92.2871 70.4666 92.2907 63.61 91.9076 57.4801C91.8722 56.9141 92.3024 56.4266 92.8684 56.3912Z" fill="#23CCB7"/>
<path d="M11.2644 40.9113C11.3975 40.3601 11.0585 39.8053 10.5073 39.6722C9.95605 39.5391 9.40129 39.8781 9.26819 40.4293C8.51455 43.5507 8.12331 46.7573 8.10781 49.9668C8.09183 53.2749 8.70865 56.5039 9.32571 59.7342C9.83048 62.3767 10.3354 65.02 10.4942 67.7081C10.7029 71.2392 9.96016 74.7754 8.67671 78.141C8.47465 78.6709 8.74039 79.2642 9.27025 79.4663C9.80012 79.6683 10.3935 79.4026 10.5955 78.8727C11.9521 75.3152 12.7745 71.4831 12.5443 67.587C12.3865 64.9173 11.8816 62.2894 11.3769 59.6624C10.7611 56.457 10.1455 53.2531 10.1614 49.9767C10.1761 46.927 10.5479 43.8788 11.2644 40.9113Z" fill="#23CCB7"/>
<path d="M38.2071 18.0938C38.4184 18.62 38.1632 19.2179 37.6369 19.4293C26.9919 23.7042 18.9982 33.351 17.3674 44.7268C16.6861 49.4795 17.4222 54.1872 18.1581 58.8937C18.5725 61.5442 18.9868 64.1943 19.1479 66.8517C19.4972 72.6141 18.8409 78.9436 15.0907 84.7025C14.7812 85.1777 14.1451 85.3121 13.6699 85.0026C13.1947 84.6932 13.0604 84.0571 13.3698 83.5819C16.7866 78.3349 17.4334 72.5069 17.0981 66.976C16.9346 64.2796 16.5229 61.5988 16.1114 58.9198C15.3731 54.113 14.6356 49.3117 15.3346 44.4354C17.0758 32.2891 25.5893 22.0545 36.8716 17.5236C37.3979 17.3123 37.9958 17.5676 38.2071 18.0938Z" fill="#23CCB7"/>
<path d="M74.2536 23.9397C65.8557 16.0741 53.6841 13.3288 42.6221 15.7551C42.0682 15.8766 41.7177 16.4242 41.8391 16.9781C41.9606 17.532 42.5082 17.8825 43.0621 17.7611C53.537 15.4635 64.998 18.0844 72.8498 25.4385C79.4678 31.637 83.3108 40.6563 84.3168 50.4967C84.3745 51.0608 84.8785 51.4714 85.4427 51.4137C86.0068 51.3561 86.4174 50.852 86.3597 50.2878C85.3151 40.0699 81.3099 30.5487 74.2536 23.9397Z" fill="#23CCB7"/>
<path d="M86.1449 55.1779C86.709 55.1199 87.2133 55.5303 87.2712 56.0944C88.2464 65.5891 87.8261 75.8443 86.3539 85.7651C86.2707 86.326 85.7485 86.7132 85.1875 86.63C84.6266 86.5468 84.2393 86.0246 84.3226 85.4636C85.7743 75.6808 86.1831 65.5998 85.2284 56.3042C85.1704 55.7401 85.5808 55.2358 86.1449 55.1779Z" fill="#23CCB7"/>
<path d="M50.3469 21.8677C34.6125 21.8677 21.8283 34.4206 21.8283 49.9405C21.8283 51.5983 21.9754 53.2226 22.2558 54.8021C22.355 55.3605 22.8879 55.7328 23.4463 55.6336C24.0046 55.5345 24.3769 55.0015 24.2778 54.4431C24.0181 52.9808 23.8818 51.4765 23.8818 49.9405C23.8818 35.5863 35.7149 23.9213 50.3469 23.9213C56.9592 23.9213 63.0005 26.3045 67.6376 30.2424C68.0698 30.6095 68.7178 30.5567 69.0848 30.1244C69.4519 29.6922 69.3991 29.0442 68.9669 28.6771C63.97 24.4336 57.4608 21.8677 50.3469 21.8677Z" fill="#23CCB7"/>
<path d="M71.2674 32.5055C71.6767 32.113 72.3267 32.1266 72.7192 32.5359C77.2507 37.2613 78.7012 44.6882 79.6609 50.9209C80.7421 57.9416 80.9071 64.7907 80.9071 67.9663C80.9071 68.5334 80.4474 68.9931 79.8803 68.9931C79.3132 68.9931 78.8535 68.5334 78.8535 67.9663C78.8535 64.8421 78.69 58.1089 77.6313 51.2335C76.7403 45.4471 75.4558 38.3566 71.237 33.9573C70.8445 33.548 70.8581 32.898 71.2674 32.5055Z" fill="#23CCB7"/>
<path d="M80.6464 73.8468C80.6915 73.2815 80.2698 72.7867 79.7045 72.7416C79.1392 72.6965 78.6444 73.1183 78.5993 73.6835C78.0951 80.0084 77.4361 86.3263 76.0992 92.1624C75.9725 92.7152 76.318 93.2659 76.8707 93.3926C77.4235 93.5192 77.9743 93.1737 78.1009 92.621C79.4731 86.631 80.1408 80.1885 80.6464 73.8468Z" fill="#23CCB7"/>
<path d="M23.9086 58.5813C24.465 58.4717 25.0048 58.8339 25.1144 59.3903C27.2854 70.4152 25.7856 80.4304 20.0364 89.2034C19.7256 89.6777 19.0891 89.8102 18.6148 89.4994C18.1405 89.1885 18.0079 88.552 18.3188 88.0777C23.7282 79.8234 25.184 70.3727 23.0995 59.7871C22.99 59.2307 23.3522 58.6908 23.9086 58.5813Z" fill="#23CCB7"/>
<path d="M50.3469 28.5485C40.1332 28.5485 30.1135 36.4547 29.0908 46.3912C28.643 50.7414 29.272 55.0263 29.9012 59.313C30.4506 63.0562 31.0002 66.8006 30.8334 70.5908C30.4515 79.2654 27.9063 86.4259 23.533 92.3235C23.1952 92.779 23.2907 93.4221 23.7462 93.7599C24.2017 94.0977 24.8448 94.0022 25.1825 93.5467C29.8209 87.2916 32.4867 79.7281 32.885 70.6812C33.0511 66.908 32.4998 63.1755 31.9489 59.4454C31.3189 55.18 30.6893 50.9177 31.1336 46.6015C32.032 37.8724 41.0167 30.6021 50.3469 30.6021C54.6986 30.6021 65.958 32.9585 69.5395 44.6257C71.784 51.9372 72.3961 61.8321 71.8525 71.4451C71.3089 81.0569 69.618 90.25 67.3442 96.145C67.1401 96.6741 67.4036 97.2684 67.9327 97.4725C68.4618 97.6766 69.0561 97.4131 69.2602 96.884C71.6391 90.7165 73.3526 81.2907 73.9028 71.5611C74.453 61.8327 73.8482 51.6638 71.5027 44.0231C67.527 31.072 55.0644 28.5485 50.3469 28.5485Z" fill="#23CCB7"/>
<path d="M34.5454 89.2049C35.0204 89.5148 35.1543 90.1509 34.8445 90.6259C34.2078 91.6021 33.6476 92.6236 33.0875 93.645C32.5274 94.6665 31.9671 95.6881 31.3303 96.6645C31.0205 97.1395 30.3843 97.2734 29.9093 96.9636C29.4343 96.6538 29.3004 96.0176 29.6102 95.5426C30.247 94.5664 30.8071 93.545 31.3672 92.5235C31.9274 91.502 32.4876 90.4804 33.1244 89.504C33.4342 89.0291 34.0704 88.8952 34.5454 89.2049Z" fill="#23CCB7"/>
<path d="M43.3375 39.2071C43.8088 38.8918 43.9354 38.2541 43.6201 37.7828C43.3048 37.3114 42.6671 37.1849 42.1958 37.5001C38.1298 40.2197 35.6353 43.9594 35.6353 49.4378C35.6353 52.7 36.2132 55.3665 36.8059 58.1014C37.6929 62.1939 38.2945 66.2776 38.1864 70.4812C38.0551 75.5857 37.0564 80.2502 35.1365 84.6937C34.9116 85.2143 35.1513 85.8186 35.6719 86.0435C36.1924 86.2684 36.7968 86.0288 37.0217 85.5082C39.0516 80.81 40.1017 75.8853 40.2393 70.534C40.3517 66.1659 39.7334 61.9206 38.8134 57.6671C38.2193 54.9203 37.6889 52.4679 37.6889 49.4378C37.6889 44.7439 39.7538 41.604 43.3375 39.2071Z" fill="#23CCB7"/>
<path d="M47.3451 35.5994C51.6059 34.7308 56.191 35.8041 59.5659 38.5357C65.5941 43.4149 66.3958 52.3129 67.0455 59.5233L67.0786 59.8906C67.9181 69.1851 66.9571 78.2129 65.0213 87.2791C64.9029 87.8337 64.3573 88.1873 63.8027 88.0689C63.2481 87.9504 62.8946 87.4049 63.013 86.8503C64.9198 77.92 65.8491 69.107 65.0333 60.0754C65.0063 59.7764 64.9794 59.4731 64.9523 59.1662L64.9519 59.1617C64.3748 52.6459 63.652 44.4849 58.2739 40.1319C55.3886 37.7966 51.4313 36.8622 47.7553 37.6116C47.1997 37.7249 46.6574 37.3663 46.5441 36.8106C46.4308 36.2549 46.7894 35.7127 47.3451 35.5994Z" fill="#23CCB7"/>
<path d="M63.5701 92.3883C63.71 91.8388 63.3779 91.2799 62.8283 91.1399C62.2788 91 61.7199 91.3321 61.58 91.8817C60.9592 94.3199 60.0027 96.5208 58.7899 98.547C58.4987 99.0336 58.6571 99.6641 59.1436 99.9554C59.6302 100.247 60.2608 100.088 60.552 99.6016C61.859 97.418 62.8965 95.0338 63.5701 92.3883Z" fill="#23CCB7"/>
<path d="M58.549 77.4877C59.1121 77.5544 59.5146 78.0649 59.448 78.6281C58.4782 86.8229 56.2889 94.1316 52.776 100.471C52.5011 100.967 51.8762 101.146 51.3802 100.871C50.8842 100.596 50.7049 99.9713 50.9798 99.4753C54.3417 93.4087 56.4644 86.3654 57.4086 78.3867C57.4753 77.8236 57.9858 77.4211 58.549 77.4877Z" fill="#23CCB7"/>
<path d="M58.3374 48.8993C57.6255 45.0957 54.3609 42.1861 50.3978 42.1861C45.0311 42.1861 41.2658 47.5956 42.5926 52.6285C44.8377 61.5124 45.2063 70.0745 43.6864 78.321L43.6854 78.3271C42.3664 85.7312 39.8337 92.3919 36.3788 98.0362C36.0827 98.5198 36.2348 99.1519 36.7185 99.448C37.2022 99.744 37.8343 99.5919 38.1303 99.1083C41.7265 93.2332 44.3454 86.3295 45.7066 78.6902C47.2846 70.1255 46.8936 61.2632 44.5823 52.12L44.5795 52.1092C43.5842 48.3445 46.3584 44.2397 50.3978 44.2397C53.3128 44.2397 55.7741 46.3841 56.3175 49.2701C57.8121 57.9393 58.5905 65.9784 58.0363 72.9C57.991 73.4653 58.4125 73.9602 58.9778 74.0055C59.5431 74.0507 60.038 73.6292 60.0833 73.0639C60.6578 65.8896 59.8469 57.6526 58.34 48.9137C58.3391 48.9089 58.3383 48.9041 58.3374 48.8993Z" fill="#23CCB7"/>
<path d="M47.3339 93.3705C47.8382 93.6297 48.037 94.2487 47.7778 94.7531L45.0571 100.048C44.7979 100.552 44.1789 100.751 43.6745 100.492C43.1701 100.233 42.9714 99.6136 43.2305 99.1092L45.9513 93.8145C46.2105 93.3101 46.8295 93.1114 47.3339 93.3705Z" fill="#23CCB7"/>
<path d="M51.1614 49.8894C51.0317 49.3374 50.4791 48.995 49.927 49.1247C49.375 49.2544 49.0326 49.807 49.1623 50.3591C52.6249 65.0987 52.1493 78.0416 47.9317 89.0671C47.729 89.5968 47.9942 90.1904 48.5238 90.393C49.0535 90.5956 49.6471 90.3305 49.8497 89.8009C54.2474 78.3047 54.6943 64.9283 51.1614 49.8894Z" fill="#23CCB7"/>
<path d="M61.3679 2.47406C54.3627 0.726699 46.9915 0.477011 39.8189 2.02543C39.2646 2.14509 38.9123 2.69146 39.0319 3.24577C39.1516 3.80008 39.698 4.15244 40.2523 4.03277C47.1213 2.5499 54.1971 2.7944 60.9275 4.48128C77.0229 8.51536 90.4203 20.6168 95.523 36.4247C97.4964 42.538 98.3347 49.0476 98.5026 55.8698C98.5165 56.4367 98.9874 56.885 99.5543 56.871C100.121 56.8571 100.569 56.3862 100.556 55.8193C100.385 48.9035 99.5372 42.2264 97.5151 35.9113C92.2159 19.3617 78.2134 6.67602 61.3679 2.47406Z" stroke="#23CCB7" stroke-width="2" stroke-miterlimit="10" stroke-linecap="round" stroke-linejoin="round"/>
<path d="M34.6082 5.58067C35.1548 5.42987 35.4757 4.86446 35.3249 4.31779C35.1741 3.77113 34.6087 3.45023 34.062 3.60104C26.561 5.67036 16.0092 12.8206 9.48811 22.3728C9.48557 22.3765 9.48305 22.3802 9.48056 22.384C3.75461 31.013 0.165244 41.8569 1.16738 52.3794C1.16834 52.3894 1.16944 52.3994 1.17069 52.4094C1.41086 54.3308 1.81405 56.2486 2.21772 58.1686C3.06791 62.2126 3.9202 66.2666 3.25589 70.3849C3.16558 70.9448 3.54622 71.4718 4.10606 71.5621C4.66591 71.6525 5.19296 71.2718 5.28327 70.712C5.97769 66.407 5.11543 62.2079 4.253 58.0079C3.85415 56.0655 3.45526 54.123 3.21029 52.1697C2.26776 42.2267 5.6627 31.854 11.188 23.5251C17.461 14.3395 27.619 7.50878 34.6082 5.58067Z" stroke="#23CCB7" stroke-width="2" stroke-miterlimit="10" stroke-linecap="round" stroke-linejoin="round"/>
<path d="M48.0824 7.87477C60.9737 7.08755 73.8625 12.3487 82.5183 22.428C82.8878 22.8583 82.8385 23.5065 82.4083 23.876C81.9781 24.2454 81.3298 24.1962 80.9604 23.766C72.729 14.1809 60.4642 9.17412 48.2013 9.92491C48.1969 9.92518 48.1926 9.92542 48.1882 9.92563C32.6803 10.676 18.1569 21.1964 12.815 35.938C12.6218 36.4712 12.033 36.7468 11.4998 36.5536C10.9666 36.3604 10.691 35.7715 10.8842 35.2384C16.5118 19.7086 31.7622 8.66721 48.0824 7.87477Z" stroke="#23CCB7" stroke-width="2" stroke-miterlimit="10" stroke-linecap="round" stroke-linejoin="round"/>
<path d="M85.6465 26.9138C85.3303 26.4431 84.6924 26.3177 84.2216 26.6339C83.7508 26.95 83.6255 27.588 83.9417 28.0587C88.7402 35.2038 90.7242 42.979 91.5086 52.2058C91.5566 52.7708 92.0536 53.1899 92.6187 53.1419C93.1837 53.0939 93.6029 52.5969 93.5548 52.0318C92.7533 42.6034 90.7072 34.4493 85.6465 26.9138Z" stroke="#23CCB7" stroke-width="2" stroke-miterlimit="10" stroke-linecap="round" stroke-linejoin="round"/>
<path d="M92.8684 56.3912C93.4343 56.3559 93.9218 56.786 93.9572 57.352C94.3442 63.5436 94.3478 70.5487 93.6628 75.7255C93.5885 76.2876 93.0724 76.6831 92.5102 76.6087C91.948 76.5343 91.5526 76.0183 91.627 75.4561C92.2871 70.4666 92.2907 63.61 91.9076 57.4801C91.8722 56.9141 92.3024 56.4266 92.8684 56.3912Z" stroke="#23CCB7" stroke-width="2" stroke-miterlimit="10" stroke-linecap="round" stroke-linejoin="round"/>
<path d="M11.2644 40.9113C11.3975 40.3601 11.0585 39.8053 10.5073 39.6722C9.95605 39.5391 9.40129 39.8781 9.26819 40.4293C8.51455 43.5507 8.12331 46.7573 8.10781 49.9668C8.09183 53.2749 8.70865 56.5039 9.32571 59.7342C9.83048 62.3767 10.3354 65.02 10.4942 67.7081C10.7029 71.2392 9.96016 74.7754 8.67671 78.141C8.47465 78.6709 8.74039 79.2642 9.27025 79.4663C9.80012 79.6683 10.3935 79.4026 10.5955 78.8727C11.9521 75.3152 12.7745 71.4831 12.5443 67.587C12.3865 64.9173 11.8816 62.2894 11.3769 59.6624C10.7611 56.457 10.1455 53.2531 10.1614 49.9767C10.1761 46.927 10.5479 43.8788 11.2644 40.9113Z" stroke="#23CCB7" stroke-width="2" stroke-miterlimit="10" stroke-linecap="round" stroke-linejoin="round"/>
<path d="M38.2071 18.0938C38.4184 18.62 38.1632 19.2179 37.6369 19.4293C26.9919 23.7042 18.9982 33.351 17.3674 44.7268C16.6861 49.4795 17.4222 54.1872 18.1581 58.8937C18.5725 61.5442 18.9868 64.1943 19.1479 66.8517C19.4972 72.6141 18.8409 78.9436 15.0907 84.7025C14.7812 85.1777 14.1451 85.3121 13.6699 85.0026C13.1947 84.6932 13.0604 84.0571 13.3698 83.5819C16.7866 78.3349 17.4334 72.5069 17.0981 66.976C16.9346 64.2796 16.5229 61.5988 16.1114 58.9198C15.3731 54.113 14.6356 49.3117 15.3346 44.4354C17.0758 32.2891 25.5893 22.0545 36.8716 17.5236C37.3979 17.3123 37.9958 17.5676 38.2071 18.0938Z" stroke="#23CCB7" stroke-width="2" stroke-miterlimit="10" stroke-linecap="round" stroke-linejoin="round"/>
<path d="M74.2536 23.9397C65.8557 16.0741 53.6841 13.3288 42.6221 15.7551C42.0682 15.8766 41.7177 16.4242 41.8391 16.9781C41.9606 17.532 42.5082 17.8825 43.0621 17.7611C53.537 15.4635 64.998 18.0844 72.8498 25.4385C79.4678 31.637 83.3108 40.6563 84.3168 50.4967C84.3745 51.0608 84.8785 51.4714 85.4427 51.4137C86.0068 51.3561 86.4174 50.852 86.3597 50.2878C85.3151 40.0699 81.3099 30.5487 74.2536 23.9397Z" stroke="#23CCB7" stroke-width="2" stroke-miterlimit="10" stroke-linecap="round" stroke-linejoin="round"/>
<path d="M86.1449 55.1779C86.709 55.1199 87.2133 55.5303 87.2712 56.0944C88.2464 65.5891 87.8261 75.8443 86.3539 85.7651C86.2707 86.326 85.7485 86.7132 85.1875 86.63C84.6266 86.5468 84.2393 86.0246 84.3226 85.4636C85.7743 75.6808 86.1831 65.5998 85.2284 56.3042C85.1704 55.7401 85.5808 55.2358 86.1449 55.1779Z" stroke="#23CCB7" stroke-width="2" stroke-miterlimit="10" stroke-linecap="round" stroke-linejoin="round"/>
<path d="M50.3469 21.8677C34.6125 21.8677 21.8283 34.4206 21.8283 49.9405C21.8283 51.5983 21.9754 53.2226 22.2558 54.8021C22.355 55.3605 22.8879 55.7328 23.4463 55.6336C24.0046 55.5345 24.3769 55.0015 24.2778 54.4431C24.0181 52.9808 23.8818 51.4765 23.8818 49.9405C23.8818 35.5863 35.7149 23.9213 50.3469 23.9213C56.9592 23.9213 63.0005 26.3045 67.6376 30.2424C68.0698 30.6095 68.7178 30.5567 69.0848 30.1244C69.4519 29.6922 69.3991 29.0442 68.9669 28.6771C63.97 24.4336 57.4608 21.8677 50.3469 21.8677Z" stroke="#23CCB7" stroke-width="2" stroke-miterlimit="10" stroke-linecap="round" stroke-linejoin="round"/>
<path d="M71.2674 32.5055C71.6767 32.113 72.3267 32.1266 72.7192 32.5359C77.2507 37.2613 78.7012 44.6882 79.6609 50.9209C80.7421 57.9416 80.9071 64.7907 80.9071 67.9663C80.9071 68.5334 80.4474 68.9931 79.8803 68.9931C79.3132 68.9931 78.8535 68.5334 78.8535 67.9663C78.8535 64.8421 78.69 58.1089 77.6313 51.2335C76.7403 45.4471 75.4558 38.3566 71.237 33.9573C70.8445 33.548 70.8581 32.898 71.2674 32.5055Z" stroke="#23CCB7" stroke-width="2" stroke-miterlimit="10" stroke-linecap="round" stroke-linejoin="round"/>
<path d="M80.6464 73.8468C80.6915 73.2815 80.2698 72.7867 79.7045 72.7416C79.1392 72.6965 78.6444 73.1183 78.5993 73.6835C78.0951 80.0084 77.4361 86.3263 76.0992 92.1624C75.9725 92.7152 76.318 93.2659 76.8707 93.3926C77.4235 93.5192 77.9743 93.1737 78.1009 92.621C79.4731 86.631 80.1408 80.1885 80.6464 73.8468Z" stroke="#23CCB7" stroke-width="2" stroke-miterlimit="10" stroke-linecap="round" stroke-linejoin="round"/>
<path d="M23.9086 58.5813C24.465 58.4717 25.0048 58.8339 25.1144 59.3903C27.2854 70.4152 25.7856 80.4304 20.0364 89.2034C19.7256 89.6777 19.0891 89.8102 18.6148 89.4994C18.1405 89.1885 18.0079 88.552 18.3188 88.0777C23.7282 79.8234 25.184 70.3727 23.0995 59.7871C22.99 59.2307 23.3522 58.6908 23.9086 58.5813Z" stroke="#23CCB7" stroke-width="2" stroke-miterlimit="10" stroke-linecap="round" stroke-linejoin="round"/>
<path d="M50.3469 28.5485C40.1332 28.5485 30.1135 36.4547 29.0908 46.3912C28.643 50.7414 29.272 55.0263 29.9012 59.313C30.4506 63.0562 31.0002 66.8006 30.8334 70.5908C30.4515 79.2654 27.9063 86.4259 23.533 92.3235C23.1952 92.779 23.2907 93.4221 23.7462 93.7599C24.2017 94.0977 24.8448 94.0022 25.1825 93.5467C29.8209 87.2916 32.4867 79.7281 32.885 70.6812C33.0511 66.908 32.4998 63.1755 31.9489 59.4454C31.3189 55.18 30.6893 50.9177 31.1336 46.6015C32.032 37.8724 41.0167 30.6021 50.3469 30.6021C54.6986 30.6021 65.958 32.9585 69.5395 44.6257C71.784 51.9372 72.3961 61.8321 71.8525 71.4451C71.3089 81.0569 69.618 90.25 67.3442 96.145C67.1401 96.6741 67.4036 97.2684 67.9327 97.4725C68.4618 97.6766 69.0561 97.4131 69.2602 96.884C71.6391 90.7165 73.3526 81.2907 73.9028 71.5611C74.453 61.8327 73.8482 51.6638 71.5027 44.0231C67.527 31.072 55.0644 28.5485 50.3469 28.5485Z" stroke="#23CCB7" stroke-width="2" stroke-miterlimit="10" stroke-linecap="round" stroke-linejoin="round"/>
<path d="M34.5454 89.2049C35.0204 89.5148 35.1543 90.1509 34.8445 90.6259C34.2078 91.6021 33.6476 92.6236 33.0875 93.645C32.5274 94.6665 31.9671 95.6881 31.3303 96.6645C31.0205 97.1395 30.3843 97.2734 29.9093 96.9636C29.4343 96.6538 29.3004 96.0176 29.6102 95.5426C30.247 94.5664 30.8071 93.545 31.3672 92.5235C31.9274 91.502 32.4876 90.4804 33.1244 89.504C33.4342 89.0291 34.0704 88.8952 34.5454 89.2049Z" stroke="#23CCB7" stroke-width="2" stroke-miterlimit="10" stroke-linecap="round" stroke-linejoin="round"/>
<path d="M43.3375 39.2071C43.8088 38.8918 43.9354 38.2541 43.6201 37.7828C43.3048 37.3114 42.6671 37.1849 42.1958 37.5001C38.1298 40.2197 35.6353 43.9594 35.6353 49.4378C35.6353 52.7 36.2132 55.3665 36.8059 58.1014C37.6929 62.1939 38.2945 66.2776 38.1864 70.4812C38.0551 75.5857 37.0564 80.2502 35.1365 84.6937C34.9116 85.2143 35.1513 85.8186 35.6719 86.0435C36.1924 86.2684 36.7968 86.0288 37.0217 85.5082C39.0516 80.81 40.1017 75.8853 40.2393 70.534C40.3517 66.1659 39.7334 61.9206 38.8134 57.6671C38.2193 54.9203 37.6889 52.4679 37.6889 49.4378C37.6889 44.7439 39.7538 41.604 43.3375 39.2071Z" stroke="#23CCB7" stroke-width="2" stroke-miterlimit="10" stroke-linecap="round" stroke-linejoin="round"/>
<path d="M47.3451 35.5994C51.6059 34.7308 56.191 35.8041 59.5659 38.5357C65.5941 43.4149 66.3958 52.3129 67.0455 59.5233L67.0786 59.8906C67.9181 69.1851 66.9571 78.2129 65.0213 87.2791C64.9029 87.8337 64.3573 88.1873 63.8027 88.0689C63.2481 87.9504 62.8946 87.4049 63.013 86.8503C64.9198 77.92 65.8491 69.107 65.0333 60.0754C65.0063 59.7764 64.9794 59.4731 64.9523 59.1662L64.9519 59.1617C64.3748 52.6459 63.652 44.4849 58.2739 40.1319C55.3886 37.7966 51.4313 36.8622 47.7553 37.6116C47.1997 37.7249 46.6574 37.3663 46.5441 36.8106C46.4308 36.2549 46.7894 35.7127 47.3451 35.5994Z" stroke="#23CCB7" stroke-width="2" stroke-miterlimit="10" stroke-linecap="round" stroke-linejoin="round"/>
<path d="M63.5701 92.3883C63.71 91.8388 63.3779 91.2799 62.8283 91.1399C62.2788 91 61.7199 91.3321 61.58 91.8817C60.9592 94.3199 60.0027 96.5208 58.7899 98.547C58.4987 99.0336 58.6571 99.6641 59.1436 99.9554C59.6302 100.247 60.2608 100.088 60.552 99.6016C61.859 97.418 62.8965 95.0338 63.5701 92.3883Z" stroke="#23CCB7" stroke-width="2" stroke-miterlimit="10" stroke-linecap="round" stroke-linejoin="round"/>
<path d="M58.549 77.4877C59.1121 77.5544 59.5146 78.0649 59.448 78.6281C58.4782 86.8229 56.2889 94.1316 52.776 100.471C52.5011 100.967 51.8762 101.146 51.3802 100.871C50.8842 100.596 50.7049 99.9713 50.9798 99.4753C54.3417 93.4087 56.4644 86.3654 57.4086 78.3867C57.4753 77.8236 57.9858 77.4211 58.549 77.4877Z" stroke="#23CCB7" stroke-width="2" stroke-miterlimit="10" stroke-linecap="round" stroke-linejoin="round"/>
<path d="M58.3374 48.8993C57.6255 45.0957 54.3609 42.1861 50.3978 42.1861C45.0311 42.1861 41.2658 47.5956 42.5926 52.6285C44.8377 61.5124 45.2063 70.0745 43.6864 78.321L43.6854 78.3271C42.3664 85.7312 39.8337 92.3919 36.3788 98.0362C36.0827 98.5198 36.2348 99.1519 36.7185 99.448C37.2022 99.744 37.8343 99.5919 38.1303 99.1083C41.7265 93.2332 44.3454 86.3295 45.7066 78.6902C47.2846 70.1255 46.8936 61.2632 44.5823 52.12L44.5795 52.1092C43.5842 48.3445 46.3584 44.2397 50.3978 44.2397C53.3128 44.2397 55.7741 46.3841 56.3175 49.2701C57.8121 57.9393 58.5905 65.9784 58.0363 72.9C57.991 73.4653 58.4125 73.9602 58.9778 74.0055C59.5431 74.0507 60.038 73.6292 60.0833 73.0639C60.6578 65.8896 59.8469 57.6526 58.34 48.9137C58.3391 48.9089 58.3383 48.9041 58.3374 48.8993Z" stroke="#23CCB7" stroke-width="2" stroke-miterlimit="10" stroke-linecap="round" stroke-linejoin="round"/>
<path d="M47.3339 93.3705C47.8382 93.6297 48.037 94.2487 47.7778 94.7531L45.0571 100.048C44.7979 100.552 44.1789 100.751 43.6745 100.492C43.1701 100.233 42.9714 99.6136 43.2305 99.1092L45.9513 93.8145C46.2105 93.3101 46.8295 93.1114 47.3339 93.3705Z" stroke="#23CCB7" stroke-width="2" stroke-miterlimit="10" stroke-linecap="round" stroke-linejoin="round"/>
<path d="M51.1614 49.8894C51.0317 49.3374 50.4791 48.995 49.927 49.1247C49.375 49.2544 49.0326 49.807 49.1623 50.3591C52.6249 65.0987 52.1493 78.0416 47.9317 89.0671C47.729 89.5968 47.9942 90.1904 48.5238 90.393C49.0535 90.5956 49.6471 90.3305 49.8497 89.8009C54.2474 78.3047 54.6943 64.9283 51.1614 49.8894Z" stroke="#23CCB7" stroke-width="2" stroke-miterlimit="10" stroke-linecap="round" stroke-linejoin="round"/>
</svg>
