<svg width="229" height="229" viewBox="0 0 229 229" fill="none" xmlns="http://www.w3.org/2000/svg">
<rect opacity="0.05" x="24" y="24" width="180" height="180" rx="90" fill="#23CCB7"/>
<rect opacity="0.2" x="44" y="44" width="140" height="140" rx="70" fill="#23CCB7"/>
<g filter="url(#filter0_f_422_1417)">
<rect x="60" y="60" width="108.889" height="108.889" rx="54.4444" fill="#23CCB7"/>
</g>
<rect opacity="0.8" x="60" y="60" width="108.889" height="108.889" rx="54.4444" fill="#23CCB7"/>
<path d="M119.297 91.691C116.014 90.8719 112.558 90.7548 109.196 91.4807C108.936 91.5368 108.771 91.7929 108.827 92.0527C108.884 92.3125 109.14 92.4777 109.399 92.4216C112.619 91.7265 115.936 91.8411 119.091 92.6318C126.636 94.5228 132.916 100.195 135.308 107.605C136.233 110.471 136.626 113.522 136.704 116.72C136.711 116.986 136.931 117.196 137.197 117.189C137.463 117.183 137.673 116.962 137.667 116.696C137.587 113.455 137.189 110.325 136.241 107.365C133.757 99.607 127.194 93.6606 119.297 91.691Z" fill="white"/>
<path d="M106.754 93.1472C107.01 93.0765 107.16 92.8115 107.09 92.5552C107.019 92.299 106.754 92.1485 106.498 92.2192C102.982 93.1892 98.0356 96.5409 94.9788 101.018C94.9776 101.02 94.9764 101.022 94.9753 101.024C92.2912 105.069 90.6087 110.152 91.0785 115.084C91.0789 115.089 91.0794 115.093 91.08 115.098C91.1926 115.999 91.3816 116.898 91.5708 117.798C91.9693 119.693 92.3688 121.594 92.0574 123.524C92.0151 123.787 92.1935 124.034 92.456 124.076C92.7184 124.118 92.9654 123.94 93.0078 123.677C93.3333 121.659 92.9291 119.691 92.5248 117.722C92.3379 116.812 92.1509 115.901 92.0361 114.986C91.5943 110.325 93.1856 105.463 95.7756 101.559C98.7161 97.2529 103.478 94.051 106.754 93.1472Z" fill="white"/>
<path d="M113.07 94.2225C119.113 93.8535 125.154 96.3197 129.212 101.044C129.385 101.246 129.362 101.55 129.16 101.723C128.958 101.896 128.654 101.873 128.481 101.672C124.623 97.1785 118.874 94.8316 113.126 95.1835C113.123 95.1837 113.121 95.1838 113.119 95.1839C105.85 95.5356 99.0423 100.467 96.5383 107.377C96.4477 107.627 96.1717 107.756 95.9218 107.666C95.6718 107.575 95.5427 107.299 95.6332 107.049C98.2711 99.7696 105.42 94.594 113.07 94.2225Z" fill="white"/>
<path d="M130.678 103.147C130.53 102.926 130.231 102.868 130.01 103.016C129.789 103.164 129.731 103.463 129.879 103.684C132.128 107.033 133.058 110.678 133.426 115.003C133.448 115.268 133.681 115.464 133.946 115.441C134.211 115.419 134.407 115.186 134.385 114.921C134.009 110.502 133.05 106.679 130.678 103.147Z" fill="white"/>
<path d="M134.063 116.965C134.328 116.948 134.557 117.15 134.574 117.415C134.755 120.317 134.757 123.601 134.436 126.027C134.401 126.291 134.159 126.476 133.895 126.441C133.632 126.407 133.446 126.165 133.481 125.901C133.791 123.562 133.792 120.348 133.613 117.475C133.596 117.21 133.798 116.981 134.063 116.965Z" fill="white"/>
<path d="M95.8114 109.708C95.8738 109.45 95.7149 109.19 95.4565 109.128C95.1981 109.065 94.9381 109.224 94.8757 109.482C94.5224 110.946 94.339 112.449 94.3318 113.953C94.3243 115.504 94.6134 117.017 94.9027 118.532C95.1393 119.77 95.376 121.009 95.4504 122.269C95.5482 123.925 95.2001 125.582 94.5984 127.16C94.5037 127.408 94.6283 127.686 94.8767 127.781C95.125 127.876 95.4032 127.751 95.4979 127.503C96.1338 125.835 96.5193 124.039 96.4114 122.213C96.3374 120.961 96.1007 119.729 95.8642 118.498C95.5755 116.995 95.287 115.494 95.2944 113.958C95.3013 112.528 95.4756 111.099 95.8114 109.708Z" fill="white"/>
<path d="M108.441 99.0127C108.54 99.2594 108.42 99.5396 108.174 99.6387C103.184 101.643 99.4366 106.165 98.6722 111.497C98.3528 113.725 98.6979 115.931 99.0428 118.138C99.2371 119.38 99.4313 120.622 99.5068 121.868C99.6705 124.569 99.3629 127.536 97.605 130.235C97.4599 130.458 97.1618 130.521 96.939 130.376C96.7163 130.231 96.6533 129.933 96.7983 129.71C98.4 127.251 98.7031 124.519 98.546 121.926C98.4693 120.662 98.2763 119.406 98.0834 118.15C97.7374 115.897 97.3917 113.646 97.7193 111.36C98.5355 105.667 102.526 100.869 107.815 98.7454C108.061 98.6464 108.342 98.766 108.441 99.0127Z" fill="white"/>
<path d="M125.338 101.753C121.401 98.066 115.696 96.7791 110.51 97.9165C110.251 97.9734 110.086 98.2301 110.143 98.4897C110.2 98.7494 110.457 98.9137 110.717 98.8567C115.627 97.7798 120.999 99.0083 124.679 102.456C127.782 105.361 129.583 109.589 130.055 114.202C130.082 114.466 130.318 114.658 130.582 114.631C130.847 114.604 131.039 114.368 131.012 114.104C130.523 109.314 128.645 104.851 125.338 101.753Z" fill="white"/>
<path d="M130.912 116.396C131.176 116.369 131.412 116.561 131.44 116.825C131.897 121.276 131.7 126.083 131.01 130.734C130.971 130.996 130.726 131.178 130.463 131.139C130.2 131.1 130.018 130.855 130.057 130.592C130.738 126.007 130.929 121.281 130.482 116.924C130.455 116.659 130.647 116.423 130.912 116.396Z" fill="white"/>
<path d="M114.131 100.782C106.756 100.782 100.763 106.666 100.763 113.941C100.763 114.718 100.832 115.479 100.964 116.22C101.01 116.481 101.26 116.656 101.522 116.609C101.783 116.563 101.958 116.313 101.911 116.051C101.79 115.366 101.726 114.661 101.726 113.941C101.726 107.212 107.273 101.744 114.131 101.744C117.231 101.744 120.063 102.861 122.236 104.707C122.439 104.879 122.743 104.855 122.915 104.652C123.087 104.449 123.062 104.146 122.859 103.974C120.517 101.984 117.466 100.782 114.131 100.782Z" fill="white"/>
<path d="M123.938 105.768C124.13 105.584 124.434 105.591 124.618 105.782C126.742 107.997 127.422 111.479 127.872 114.4C128.379 117.691 128.456 120.902 128.456 122.39C128.456 122.656 128.241 122.872 127.975 122.872C127.709 122.872 127.494 122.656 127.494 122.39C127.494 120.926 127.417 117.77 126.921 114.547C126.503 111.835 125.901 108.511 123.924 106.449C123.74 106.257 123.746 105.952 123.938 105.768Z" fill="white"/>
<path d="M128.334 125.147C128.355 124.882 128.158 124.65 127.893 124.629C127.628 124.608 127.396 124.805 127.375 125.07C127.138 128.035 126.829 130.997 126.203 133.732C126.143 133.991 126.305 134.25 126.564 134.309C126.823 134.368 127.082 134.206 127.141 133.947C127.784 131.139 128.097 128.119 128.334 125.147Z" fill="white"/>
<path d="M101.738 117.991C101.999 117.94 102.252 118.11 102.304 118.37C103.321 123.538 102.618 128.233 99.9233 132.345C99.7776 132.568 99.4792 132.63 99.2569 132.484C99.0346 132.338 98.9725 132.04 99.1182 131.818C101.654 127.948 102.336 123.518 101.359 118.556C101.308 118.296 101.478 118.043 101.738 117.991Z" fill="white"/>
<path d="M114.131 103.913C109.344 103.913 104.647 107.619 104.168 112.277C103.958 114.316 104.252 116.325 104.547 118.334C104.805 120.089 105.063 121.844 104.984 123.621C104.805 127.687 103.612 131.043 101.562 133.808C101.404 134.021 101.449 134.323 101.662 134.481C101.876 134.639 102.177 134.595 102.336 134.381C104.51 131.449 105.759 127.904 105.946 123.663C106.024 121.894 105.765 120.145 105.507 118.396C105.212 116.397 104.917 114.399 105.125 112.376C105.546 108.284 109.758 104.876 114.131 104.876C116.171 104.876 121.449 105.98 123.128 111.45C124.18 114.877 124.467 119.515 124.212 124.021C123.957 128.527 123.165 132.836 122.099 135.599C122.003 135.847 122.127 136.126 122.375 136.221C122.623 136.317 122.901 136.194 122.997 135.946C124.112 133.054 124.915 128.636 125.173 124.075C125.431 119.515 125.148 114.749 124.048 111.167C122.184 105.096 116.343 103.913 114.131 103.913Z" fill="white"/>
<path d="M106.724 132.346C106.947 132.491 107.01 132.789 106.865 133.012C106.566 133.47 106.304 133.948 106.041 134.427C105.778 134.906 105.516 135.385 105.217 135.843C105.072 136.065 104.774 136.128 104.551 135.983C104.329 135.838 104.266 135.539 104.411 135.317C104.709 134.859 104.972 134.38 105.235 133.902C105.497 133.423 105.76 132.944 106.058 132.486C106.204 132.264 106.502 132.201 106.724 132.346Z" fill="white"/>
<path d="M110.846 108.91C111.067 108.762 111.126 108.463 110.978 108.242C110.83 108.021 110.531 107.962 110.31 108.109C108.405 109.384 107.235 111.137 107.235 113.705C107.235 115.234 107.506 116.484 107.784 117.766C108.2 119.685 108.482 121.599 108.431 123.569C108.37 125.962 107.901 128.148 107.001 130.231C106.896 130.475 107.008 130.759 107.252 130.864C107.496 130.969 107.78 130.857 107.885 130.613C108.837 128.411 109.329 126.102 109.393 123.594C109.446 121.546 109.156 119.556 108.725 117.563C108.446 116.275 108.198 115.125 108.198 113.705C108.198 111.505 109.166 110.033 110.846 108.91Z" fill="white"/>
<path d="M112.724 107.218C114.721 106.811 116.871 107.314 118.453 108.595C121.278 110.882 121.654 115.053 121.959 118.433L121.974 118.605C122.368 122.962 121.917 127.193 121.01 131.443C120.954 131.703 120.699 131.869 120.439 131.813C120.179 131.758 120.013 131.502 120.068 131.242C120.962 127.056 121.398 122.925 121.016 118.692C121.003 118.551 120.99 118.409 120.978 118.265L120.977 118.263C120.707 115.209 120.368 111.384 117.847 109.343C116.495 108.248 114.64 107.81 112.916 108.162C112.656 108.215 112.402 108.047 112.349 107.786C112.296 107.526 112.464 107.272 112.724 107.218Z" fill="white"/>
<path d="M120.33 133.838C120.395 133.581 120.24 133.319 119.982 133.253C119.724 133.187 119.462 133.343 119.397 133.601C119.106 134.744 118.657 135.775 118.089 136.725C117.952 136.953 118.027 137.249 118.255 137.385C118.483 137.522 118.778 137.447 118.915 137.219C119.528 136.196 120.014 135.078 120.33 133.838Z" fill="white"/>
<path d="M117.976 126.854C118.24 126.885 118.429 127.124 118.397 127.388C117.943 131.229 116.917 134.655 115.27 137.627C115.141 137.859 114.848 137.943 114.616 137.814C114.383 137.686 114.299 137.393 114.428 137.16C116.004 134.316 116.999 131.015 117.441 127.275C117.473 127.011 117.712 126.822 117.976 126.854Z" fill="white"/>
<path d="M117.877 113.453C117.543 111.67 116.013 110.306 114.155 110.306C111.639 110.306 109.875 112.842 110.496 115.201C111.549 119.365 111.722 123.379 111.009 127.244L111.009 127.247C110.39 130.718 109.203 133.84 107.584 136.486C107.445 136.712 107.516 137.009 107.743 137.147C107.97 137.286 108.266 137.215 108.405 136.988C110.09 134.234 111.318 130.998 111.956 127.417C112.696 123.403 112.513 119.248 111.429 114.962L111.428 114.957C110.961 113.193 112.262 111.269 114.155 111.269C115.522 111.269 116.675 112.274 116.93 113.627C117.631 117.69 117.995 121.459 117.736 124.703C117.714 124.968 117.912 125.2 118.177 125.221C118.442 125.242 118.674 125.045 118.695 124.78C118.965 121.417 118.584 117.556 117.878 113.459C117.878 113.457 117.877 113.455 117.877 113.453Z" fill="white"/>
<path d="M112.719 134.299C112.955 134.42 113.049 134.71 112.927 134.947L111.652 137.429C111.53 137.665 111.24 137.758 111.004 137.637C110.767 137.515 110.674 137.225 110.796 136.989L112.071 134.507C112.192 134.27 112.483 134.177 112.719 134.299Z" fill="white"/>
<path d="M114.513 113.917C114.452 113.658 114.193 113.498 113.934 113.558C113.676 113.619 113.515 113.878 113.576 114.137C115.199 121.046 114.976 127.113 112.999 132.281C112.904 132.53 113.028 132.808 113.277 132.903C113.525 132.998 113.803 132.874 113.898 132.625C115.96 127.236 116.169 120.966 114.513 113.917Z" fill="white"/>
<defs>
<filter id="filter0_f_422_1417" x="0" y="0" width="228.889" height="228.889" filterUnits="userSpaceOnUse" color-interpolation-filters="sRGB">
<feFlood flood-opacity="0" result="BackgroundImageFix"/>
<feBlend mode="normal" in="SourceGraphic" in2="BackgroundImageFix" result="shape"/>
<feGaussianBlur stdDeviation="30" result="effect1_foregroundBlur_422_1417"/>
</filter>
</defs>
</svg>
