<svg width="20" height="12" viewBox="0 0 20 12" fill="none" xmlns="http://www.w3.org/2000/svg">
<path d="M0.581676 12V0.363636H8.28622V2.39205H3.0419V5.16477H7.77486V7.19318H3.0419V12H0.581676ZM9.94105 12V0.363636H14.532C15.4107 0.363636 16.1607 0.520833 16.782 0.835227C17.407 1.14583 17.8823 1.58712 18.2081 2.15909C18.5376 2.72727 18.7024 3.39583 18.7024 4.16477C18.7024 4.9375 18.5357 5.60227 18.2024 6.15909C17.8691 6.71212 17.3861 7.13636 16.7536 7.43182C16.1248 7.72727 15.3634 7.875 14.4695 7.875H11.3956V5.89773H14.0717C14.5414 5.89773 14.9316 5.83333 15.2422 5.70455C15.5528 5.57576 15.7839 5.38258 15.9354 5.125C16.0907 4.86742 16.1683 4.54735 16.1683 4.16477C16.1683 3.77841 16.0907 3.45265 15.9354 3.1875C15.7839 2.92235 15.5509 2.72159 15.2365 2.58523C14.9259 2.44508 14.5339 2.375 14.0604 2.375H12.4013V12H9.94105ZM16.2251 6.70455L19.1172 12H16.4013L13.5717 6.70455H16.2251Z" fill="black"/>
</svg>
