<svg width="14" height="14" viewBox="0 0 14 14" fill="none" xmlns="http://www.w3.org/2000/svg">
<path d="M8.46391 2.52975C8.89455 2.0991 9.59276 2.0991 10.0234 2.52975L10.887 3.39333C11.3176 3.82397 11.3176 4.52218 10.887 4.95283L10.8451 4.99474C10.6297 5.21007 10.2806 5.21007 10.0653 4.99474L8.42199 3.35141C8.20667 3.13609 8.20667 2.78699 8.42199 2.57167L8.46391 2.52975Z" stroke="#0C3A5E"/>
<path d="M7.25199 3.74166C7.68263 3.31102 8.38084 3.31102 8.81148 3.74166L9.67507 4.60525C10.1057 5.03589 10.1057 5.7341 9.67507 6.16474L5.28279 10.557C5.23972 10.6001 5.1699 10.6001 5.12684 10.557L2.85971 8.28989C2.81665 8.24683 2.81665 8.17701 2.85971 8.13394L7.25199 3.74166Z" stroke="#0C3A5E"/>
<path d="M2.75055 8.43024C2.7634 8.34029 2.87343 8.30361 2.93769 8.36786L5.04887 10.479C5.11312 10.5433 5.07644 10.6533 4.98649 10.6662L3.83342 10.8309C3.10566 10.9349 2.48186 10.3111 2.58582 9.58331L2.75055 8.43024Z" stroke="#0C3A5E"/>
</svg>
