<svg width="17" height="16" viewBox="0 0 17 16" fill="none" xmlns="http://www.w3.org/2000/svg">
<path d="M6.17672 3.78915L4.86037 1.5488C4.60308 1.11091 4.04476 0.961304 3.62703 1.25018C2.80513 1.81856 1.58019 2.81568 1.27546 3.88176C0.802433 5.53665 2.50765 9.47778 4.82601 11.7962C7.14443 14.1146 10.8845 15.6186 12.5395 15.1458C13.6055 14.8412 14.6028 13.6168 15.1715 12.795C15.4605 12.3773 15.3109 11.8188 14.873 11.5615L12.6326 10.2451C12.2075 9.99538 11.6617 10.1187 11.3852 10.5268L10.7693 11.4364C10.5028 11.83 9.9853 11.9563 9.58709 11.6966C8.94571 11.2784 7.94741 10.5537 6.90748 9.51377C5.86768 8.47398 5.14301 7.4758 4.72479 6.83441C4.46506 6.43609 4.5915 5.91849 4.98532 5.652L5.8947 5.03665C6.30307 4.76032 6.42651 4.21427 6.17672 3.78915Z" stroke="#667085" stroke-width="1.5"/>
</svg>
