<svg width="18" height="18" viewBox="0 0 18 18" fill="none" xmlns="http://www.w3.org/2000/svg">
<path d="M2.3335 10.0951C2.3335 9.4903 2.82379 9 3.4286 9H14.5717C15.1765 9 15.6668 9.4903 15.6668 10.0951V14.3098C15.6668 15.5194 14.6862 16.5 13.4766 16.5H4.52371C3.31409 16.5 2.3335 15.5194 2.3335 14.3098V10.0951Z" stroke="#667085" stroke-width="1.5"/>
<rect x="1.5" y="5.66663" width="15" height="3.33333" rx="1.09511" stroke="#667085" stroke-width="1.5"/>
<path d="M3.4329 4.44805C2.36497 2.48945 4.71434 0.922669 6.85008 1.70601C8.56287 2.33423 8.91656 3.95888 8.9847 5.07606C9.00311 5.3779 8.755 5.62323 8.45268 5.62997C6.43299 5.67502 4.21568 5.88369 3.4329 4.44805Z" stroke="#667085" stroke-width="1.5" stroke-linecap="round"/>
<path d="M14.5671 4.44805C15.635 2.48945 13.2857 0.922669 11.1499 1.70601C9.43713 2.33423 9.08344 3.95888 9.0153 5.07606C8.99689 5.3779 9.245 5.62323 9.54732 5.62997C11.567 5.67502 13.7843 5.88369 14.5671 4.44805Z" stroke="#667085" stroke-width="1.5" stroke-linecap="round"/>
<path d="M9 5.66663V16.5" stroke="#667085" stroke-width="1.5" stroke-linecap="round"/>
</svg>
