<svg width="15" height="15" viewBox="0 0 15 15" fill="none" xmlns="http://www.w3.org/2000/svg">
<path d="M12.5 4.4V10.6C12.5 11.55 12.4125 12.225 12.1875 12.7063C12.1875 12.7125 12.1812 12.725 12.175 12.7313C12.0375 12.9063 11.8563 12.9938 11.6438 12.9938C11.3125 12.9938 10.9125 12.775 10.4813 12.3125C9.96876 11.7625 9.18123 11.8062 8.73123 12.4062L8.10001 13.2438C7.85001 13.5813 7.51875 13.75 7.1875 13.75C6.85625 13.75 6.52499 13.5813 6.27499 13.2438L5.63751 12.4C5.19376 11.8063 4.41249 11.7625 3.89999 12.3062L3.89374 12.3125C3.18749 13.0688 2.56251 13.1813 2.20001 12.7313C2.19376 12.725 2.1875 12.7125 2.1875 12.7063C1.9625 12.225 1.875 11.55 1.875 10.6V4.4C1.875 3.45 1.9625 2.775 2.1875 2.29375C2.1875 2.2875 2.18751 2.28125 2.20001 2.275C2.55626 1.81875 3.18749 1.93125 3.89374 2.6875L3.89999 2.69375C4.41249 3.2375 5.19376 3.19375 5.63751 2.6L6.27499 1.75625C6.52499 1.41875 6.85625 1.25 7.1875 1.25C7.51875 1.25 7.85001 1.41875 8.10001 1.75625L8.73123 2.59375C9.18123 3.19375 9.96876 3.2375 10.4813 2.6875C10.9125 2.225 11.3125 2.00625 11.6438 2.00625C11.8563 2.00625 12.0375 2.1 12.175 2.275C12.1875 2.28125 12.1875 2.2875 12.1875 2.29375C12.4125 2.775 12.5 3.45 12.5 4.4Z" stroke="black" stroke-width="1.5" stroke-linecap="round" stroke-linejoin="round"/>
<path d="M5 6.40625H10" stroke="black" stroke-width="1.5" stroke-linecap="round" stroke-linejoin="round"/>
<path d="M5 8.59375H8.75" stroke="black" stroke-width="1.5" stroke-linecap="round" stroke-linejoin="round"/>
</svg>
