<svg width="166" height="370" viewBox="0 0 166 370" fill="none" xmlns="http://www.w3.org/2000/svg">
<g filter="url(#filter0_f_1098_31571)">
<path fill-rule="evenodd" clip-rule="evenodd" d="M-24.8581 98.1518C4.00612 98.9268 31.3689 46.099 53.2452 64.9449C76.8578 85.2867 31.4516 126.602 42.1475 155.876C51.4154 181.241 96.969 179.116 104.443 205.067C111.459 229.431 92.994 255.049 76.1716 274.019C59.4493 292.876 36.5997 310.684 11.4059 309.98C-13.2869 309.289 -25.7434 277.165 -49.5306 270.503C-73.8416 263.695 -103.159 286.791 -123.718 272.138C-143.499 258.039 -138.359 227.276 -143.491 203.533C-149.054 177.793 -161.82 152.462 -155.086 127.003C-147.892 99.8051 -133.171 66.7622 -105.704 60.677C-76.1048 54.1194 -55.1643 97.338 -24.8581 98.1518Z" fill="#23CCB7"/>
</g>
<defs>
<filter id="filter0_f_1098_31571" x="-217" y="0" width="382.972" height="370" filterUnits="userSpaceOnUse" color-interpolation-filters="sRGB">
<feFlood flood-opacity="0" result="BackgroundImageFix"/>
<feBlend mode="normal" in="SourceGraphic" in2="BackgroundImageFix" result="shape"/>
<feGaussianBlur stdDeviation="30" result="effect1_foregroundBlur_1098_31571"/>
</filter>
</defs>
</svg>
