<svg width="25" height="24" viewBox="0 0 25 24" fill="none" xmlns="http://www.w3.org/2000/svg">
<path d="M15.4448 18.4362L21.5221 12.3465C21.7172 12.1511 21.7168 11.8345 21.5214 11.6394L15.4293 5.55971C15.1142 5.24522 14.5761 5.46842 14.5761 5.91362L14.5761 8.37293C14.5761 8.64987 14.3501 8.87358 14.0732 8.87707C8.40748 8.94845 4.19795 10.6566 3.30224 15.6188C3.20851 16.138 4.10075 16.4771 4.542 16.1878C7.37198 14.3326 12.6542 14.8639 14.1728 15.0646C14.4151 15.0967 14.5909 15.3043 14.5909 15.5487L14.5909 18.083C14.5909 18.5287 15.13 18.7516 15.4448 18.4362Z" stroke="#0C3A5E" stroke-width="1.5" stroke-linecap="round"/>
</svg>
