<svg width="20" height="20" viewBox="0 0 20 20" fill="none" xmlns="http://www.w3.org/2000/svg">
<path d="M11.5029 5.52454L14.8689 6.48381C15.1895 6.57517 15.508 6.3332 15.5059 5.99988L15.4844 2.49994" stroke="black" stroke-width="1.5" stroke-linecap="round"/>
<path d="M15 5.83337C13.7899 4.15016 11.8146 3.33337 9.58333 3.33337C5.90143 3.33337 3.33333 6.4642 3.33333 10.1461C3.33333 10.414 3.34914 10.6783 3.37987 10.938" stroke="black" stroke-width="1.5" stroke-linecap="round"/>
<path d="M8.49756 14.5801L5.13158 13.6208C4.81101 13.5294 4.4925 13.7714 4.49455 14.1047L4.51612 17.6047" stroke="black" stroke-width="1.5" stroke-linecap="round"/>
<path d="M5.00049 14.2712C6.21058 15.9545 8.18586 16.7712 10.4172 16.7712C14.0991 16.7712 16.6672 13.6404 16.6672 9.95852C16.6672 9.69057 16.6513 9.42631 16.6206 9.16662" stroke="black" stroke-width="1.5" stroke-linecap="round"/>
</svg>
