<svg width="24" height="22" viewBox="0 0 24 22" fill="none" xmlns="http://www.w3.org/2000/svg">
<path fill-rule="evenodd" clip-rule="evenodd" d="M6.80404 0.824252C6.99792 0.964207 7.31059 1.28569 7.31059 1.28569C8.52442 2.42334 10.3527 5.25293 10.9398 6.68851C10.9521 6.68851 11.3002 7.5421 11.3139 7.9481V8.00215C11.3139 8.62432 10.9657 9.20631 10.4059 9.50424C10.1751 9.62707 9.61382 9.7413 9.343 9.79641C9.25331 9.81466 9.19548 9.82643 9.19209 9.82988C8.39197 9.95182 7.1645 10.0322 5.81686 10.0322C4.40233 10.0322 3.1216 9.95182 2.33378 9.80216C2.32012 9.80216 1.60057 9.65389 1.36026 9.55828C1.01346 9.41001 0.719899 9.13841 0.532842 8.80031C0.399034 8.5301 0.333496 8.24464 0.333496 7.9481C0.345785 7.63632 0.546495 7.05433 0.639341 6.82431C1.22646 5.30697 3.14755 2.40949 4.32177 1.29955C4.44375 1.17575 4.58256 1.04607 4.67915 0.955832C4.73069 0.907686 4.77021 0.870768 4.78873 0.851966C5.08229 0.621941 5.44275 0.5 5.83052 0.5C6.17596 0.5 6.52277 0.608084 6.80404 0.824252ZM19.2669 8.85541C19.2669 9.46651 18.7794 9.96122 18.1773 9.96122C17.5752 9.96122 17.0877 9.46651 17.0877 8.85541L16.7874 3.51345C16.7874 2.73467 17.41 2.10417 18.1773 2.10417C18.9447 2.10417 19.5659 2.73467 19.5659 3.51345L19.2669 8.85541ZM22.6401 12.4415C22.9869 12.5912 23.2804 12.8614 23.4675 13.1995C23.6013 13.4697 23.6668 13.7552 23.6668 14.0531C23.6545 14.3635 23.4538 14.9469 23.3596 15.1769C22.7739 16.6929 20.8514 19.5905 19.6786 20.7018C19.5586 20.8227 19.4224 20.9498 19.326 21.0397C19.2721 21.09 19.2307 21.1286 19.2116 21.148C18.9167 21.3781 18.5576 21.5 18.1712 21.5C17.823 21.5 17.4762 21.3919 17.1963 21.1744C17.0024 21.0358 16.6897 20.7143 16.6897 20.7143C15.4745 19.578 13.6477 16.747 13.0606 15.3114C13.0469 15.3114 12.7001 14.4591 12.6864 14.0531V13.9991C12.6864 13.3755 13.0332 12.7935 13.5944 12.4956C13.8247 12.374 14.3843 12.2595 14.6557 12.2039C14.7463 12.1854 14.8048 12.1734 14.8082 12.1699C15.6084 12.048 16.8358 11.9676 18.1835 11.9676C19.598 11.9676 20.8787 12.048 21.6665 12.1976C21.6788 12.1976 22.3998 12.3459 22.6401 12.4415ZM5.82328 12.0389C5.22115 12.0389 4.73371 12.5336 4.73371 13.1447L4.43332 18.4866C4.43332 19.2653 5.05594 19.8958 5.82328 19.8958C6.59063 19.8958 7.21187 19.2653 7.21187 18.4866L6.91286 13.1447C6.91286 12.5336 6.42542 12.0389 5.82328 12.0389Z" fill="white"/>
</svg>
