<svg width="50" height="50" viewBox="0 0 50 50" fill="none" xmlns="http://www.w3.org/2000/svg">
<path fill-rule="evenodd" clip-rule="evenodd" d="M24.9997 6.24992C14.6443 6.24992 6.24967 14.6446 6.24967 24.9999C6.24967 35.3553 14.6443 43.7499 24.9997 43.7499C35.355 43.7499 43.7497 35.3553 43.7497 24.9999C43.7497 14.6446 35.355 6.24992 24.9997 6.24992ZM2.08301 24.9999C2.08301 12.3434 12.3431 2.08325 24.9997 2.08325C37.6562 2.08325 47.9163 12.3434 47.9163 24.9999C47.9163 37.6564 37.6562 47.9166 24.9997 47.9166C12.3431 47.9166 2.08301 37.6564 2.08301 24.9999Z" fill="black"/>
<path fill-rule="evenodd" clip-rule="evenodd" d="M25.0003 12.5C26.1509 12.5 27.0837 13.4327 27.0837 14.5833V25.1787L33.7651 31.8602C34.5787 32.6738 34.5787 33.9929 33.7651 34.8065C32.9515 35.6201 31.6324 35.6201 30.8189 34.8065L22.917 26.9046V14.5833C22.917 13.4327 23.8497 12.5 25.0003 12.5Z" fill="black"/>
</svg>
