<svg width="47" height="47" viewBox="0 0 47 47" fill="none" xmlns="http://www.w3.org/2000/svg">
<path d="M28.2974 0.690963C25.0137 -0.128109 21.5585 -0.24515 18.1963 0.480668C17.9365 0.53676 17.7713 0.792869 17.8274 1.0527C17.8835 1.31254 18.1396 1.4777 18.3995 1.42161C21.6193 0.726512 24.9361 0.841122 28.0909 1.63185C35.6356 3.52281 41.9156 9.19537 44.3075 16.6053C45.2325 19.4709 45.6255 22.5223 45.7042 25.7201C45.7107 25.9859 45.9315 26.196 46.1972 26.1895C46.4629 26.1829 46.6731 25.9622 46.6665 25.6965C46.5868 22.4547 46.1892 19.3248 45.2413 16.3646C42.7573 8.60702 36.1937 2.66062 28.2974 0.690963Z" fill="#23CCB7"/>
<path d="M15.7538 2.14718C16.01 2.07649 16.1605 1.81146 16.0898 1.55521C16.0191 1.29896 15.754 1.14854 15.4978 1.21923C11.9817 2.18923 7.03555 5.54089 3.97879 10.0185C3.9776 10.0202 3.97642 10.022 3.97525 10.0237C1.29122 14.0686 -0.391291 19.1516 0.078461 24.084C0.0789083 24.0887 0.0794246 24.0934 0.0800097 24.0981C0.19259 24.9987 0.381586 25.8977 0.570803 26.7977C0.969331 28.6933 1.36884 30.5936 1.05744 32.5241C1.01511 32.7865 1.19354 33.0336 1.45596 33.0759C1.71839 33.1182 1.96544 32.9398 2.00778 32.6774C2.33329 30.6594 1.9291 28.6911 1.52484 26.7224C1.33788 25.8119 1.1509 24.9013 1.03607 23.9857C0.59426 19.325 2.18564 14.4628 4.77559 10.5586C7.71607 6.25288 12.4776 3.05098 15.7538 2.14718Z" fill="#23CCB7"/>
<path d="M22.0698 3.22254C28.1126 2.85353 34.1542 5.31967 38.2116 10.0444C38.3848 10.246 38.3617 10.5499 38.16 10.7231C37.9584 10.8963 37.6545 10.8732 37.4813 10.6715C33.6229 6.17851 27.8738 3.83161 22.1255 4.18354C22.1235 4.18367 22.1214 4.18378 22.1194 4.18388C14.8501 4.53562 8.04229 9.46703 5.53826 16.3771C5.44769 16.6271 5.17168 16.7562 4.92176 16.6657C4.67185 16.5751 4.54267 16.2991 4.63323 16.0492C7.27113 8.76964 14.4197 3.594 22.0698 3.22254Z" fill="#23CCB7"/>
<path d="M39.6779 12.1471C39.5297 11.9264 39.2307 11.8676 39.01 12.0158C38.7893 12.164 38.7306 12.4631 38.8788 12.6838C41.1281 16.033 42.0581 19.6776 42.4258 24.0026C42.4483 24.2675 42.6813 24.464 42.9461 24.4414C43.211 24.4189 43.4075 24.186 43.3849 23.9211C43.0092 19.5015 42.0501 15.6793 39.6779 12.1471Z" fill="#23CCB7"/>
<path d="M43.0632 25.9646C43.3285 25.948 43.557 26.1496 43.5736 26.4149C43.755 29.3172 43.7566 32.6009 43.4356 35.0275C43.4007 35.291 43.1588 35.4763 42.8953 35.4415C42.6318 35.4066 42.4464 35.1647 42.4813 34.9012C42.7907 32.5624 42.7924 29.3484 42.6128 26.475C42.5962 26.2097 42.7979 25.9811 43.0632 25.9646Z" fill="#23CCB7"/>
<path d="M4.81143 18.7084C4.87382 18.45 4.71492 18.1899 4.45653 18.1275C4.19814 18.0652 3.93809 18.2241 3.8757 18.4824C3.52243 19.9456 3.33904 21.4487 3.33178 22.9531C3.32429 24.5038 3.61342 26.0174 3.90266 27.5316C4.13928 28.7703 4.37596 30.0093 4.45041 31.2693C4.54821 32.9245 4.20006 34.5821 3.59845 36.1597C3.50373 36.4081 3.6283 36.6862 3.87667 36.781C4.12504 36.8757 4.40317 36.7511 4.49788 36.5027C5.1338 34.8352 5.51926 33.0389 5.41135 31.2126C5.33741 29.9612 5.10075 28.7293 4.86417 27.4979C4.5755 25.9954 4.28696 24.4935 4.29438 22.9578C4.30128 21.5282 4.47557 20.0994 4.81143 18.7084Z" fill="#23CCB7"/>
<path d="M17.4408 8.01269C17.5398 8.25936 17.4202 8.53963 17.1735 8.63869C12.1837 10.6425 8.43662 15.1645 7.67221 20.4969C7.35285 22.7247 7.69788 24.9314 8.04282 27.1376C8.23707 28.38 8.4313 29.6222 8.50681 30.8679C8.67055 33.569 8.36288 36.536 6.60499 39.2354C6.45993 39.4582 6.16176 39.5212 5.93901 39.3761C5.71626 39.2311 5.65327 38.9329 5.79833 38.7101C7.39995 36.2506 7.70312 33.5188 7.54596 30.9262C7.46934 29.6622 7.27633 28.4056 7.08344 27.1498C6.73735 24.8966 6.39167 22.646 6.71933 20.3603C7.53552 14.6667 11.5262 9.86925 16.8148 7.74542C17.0615 7.64636 17.3417 7.76602 17.4408 8.01269Z" fill="#23CCB7"/>
<path d="M34.3375 10.7529C30.401 7.06595 24.6956 5.77913 19.5103 6.91646C19.2507 6.97341 19.0863 7.23006 19.1433 7.48971C19.2002 7.74935 19.4569 7.91367 19.7165 7.85672C24.6266 6.77975 29.999 8.00829 33.6795 11.4555C36.7817 14.3611 38.5831 18.5888 39.0546 23.2015C39.0817 23.4659 39.3179 23.6584 39.5824 23.6314C39.8468 23.6043 40.0393 23.368 40.0123 23.1036C39.5226 18.3139 37.6451 13.8509 34.3375 10.7529Z" fill="#23CCB7"/>
<path d="M39.9115 25.3958C40.176 25.3686 40.4123 25.561 40.4395 25.8254C40.8966 30.2761 40.6996 35.0832 40.0095 39.7335C39.9705 39.9964 39.7257 40.178 39.4628 40.139C39.1999 40.0999 39.0183 39.8551 39.0573 39.5922C39.7378 35.0065 39.9294 30.2811 39.4819 25.9238C39.4548 25.6593 39.6471 25.423 39.9115 25.3958Z" fill="#23CCB7"/>
<path d="M23.1313 9.78169C15.7558 9.78169 9.76322 15.6659 9.76322 22.9408C9.76322 23.7179 9.83218 24.4793 9.96363 25.2197C10.0101 25.4814 10.2599 25.6559 10.5217 25.6094C10.7834 25.563 10.9579 25.3131 10.9114 25.0514C10.7897 24.3659 10.7258 23.6608 10.7258 22.9408C10.7258 16.2123 16.2726 10.7443 23.1313 10.7443C26.2308 10.7443 29.0627 11.8614 31.2363 13.7073C31.4389 13.8794 31.7426 13.8547 31.9147 13.652C32.0867 13.4494 32.062 13.1457 31.8594 12.9736C29.5171 10.9845 26.4659 9.78169 23.1313 9.78169Z" fill="#23CCB7"/>
<path d="M32.9378 14.7682C33.1296 14.5842 33.4343 14.5906 33.6183 14.7824C35.7424 16.9974 36.4223 20.4788 36.8722 23.4004C37.379 26.6913 37.4563 29.9018 37.4563 31.3904C37.4563 31.6562 37.2409 31.8717 36.975 31.8717C36.7092 31.8717 36.4937 31.6562 36.4937 31.3904C36.4937 29.9259 36.4171 26.7697 35.9208 23.5469C35.5031 20.8345 34.9011 17.5109 32.9235 15.4487C32.7395 15.2568 32.7459 14.9521 32.9378 14.7682Z" fill="#23CCB7"/>
<path d="M37.3341 34.1468C37.3553 33.8818 37.1576 33.6499 36.8926 33.6288C36.6276 33.6077 36.3957 33.8053 36.3746 34.0703C36.1382 37.0351 35.8293 39.9966 35.2026 42.7323C35.1433 42.9914 35.3052 43.2495 35.5643 43.3089C35.8234 43.3682 36.0816 43.2063 36.1409 42.9472C36.7842 40.1394 37.0971 37.1195 37.3341 34.1468Z" fill="#23CCB7"/>
<path d="M10.7384 26.9911C10.9992 26.9398 11.2522 27.1096 11.3036 27.3704C12.3213 32.5383 11.6182 37.2329 8.92328 41.3452C8.77758 41.5675 8.47923 41.6297 8.2569 41.484C8.03457 41.3383 7.97245 41.0399 8.11815 40.8176C10.6538 36.9483 11.3362 32.5183 10.3591 27.5564C10.3078 27.2956 10.4776 27.0425 10.7384 26.9911Z" fill="#23CCB7"/>
<path d="M23.1313 12.9133C18.3436 12.9133 13.6469 16.6194 13.1675 21.2771C12.9576 23.3162 13.2525 25.3248 13.5474 27.3342C13.8049 29.0887 14.0626 30.8439 13.9844 32.6206C13.8053 36.6868 12.6123 40.0433 10.5623 42.8078C10.404 43.0213 10.4487 43.3228 10.6622 43.4811C10.8758 43.6394 11.1772 43.5947 11.3355 43.3811C13.5098 40.4491 14.7593 36.9037 14.946 32.6629C15.0239 30.8943 14.7655 29.1447 14.5072 27.3962C14.2119 25.3968 13.9168 23.3988 14.1251 21.3756C14.5462 17.2839 18.7578 13.8759 23.1313 13.8759C25.1712 13.8759 30.449 14.9805 32.1278 20.4495C33.1799 23.8767 33.4668 28.515 33.212 33.021C32.9572 37.5266 32.1646 41.8358 31.0988 44.5991C31.0031 44.8471 31.1266 45.1257 31.3746 45.2214C31.6226 45.317 31.9012 45.1935 31.9969 44.9455C33.112 42.0545 33.9152 37.6362 34.1731 33.0754C34.431 28.5152 34.1475 23.7486 33.048 20.167C31.1845 14.0962 25.3426 12.9133 23.1313 12.9133Z" fill="#23CCB7"/>
<path d="M15.7244 41.346C15.947 41.4912 16.0098 41.7894 15.8646 42.012C15.5661 42.4696 15.3035 42.9484 15.041 43.4272C14.7784 43.906 14.5158 44.3849 14.2173 44.8426C14.0721 45.0652 13.7738 45.128 13.5512 44.9828C13.3286 44.8376 13.2658 44.5394 13.411 44.3167C13.7095 43.8591 13.972 43.3803 14.2346 42.9015C14.4972 42.4227 14.7598 41.9438 15.0583 41.4861C15.2035 41.2635 15.5017 41.2007 15.7244 41.346Z" fill="#23CCB7"/>
<path d="M19.8456 17.9095C20.0666 17.7617 20.1259 17.4628 19.9781 17.2419C19.8303 17.0209 19.5314 16.9616 19.3105 17.1094C17.4045 18.3842 16.2352 20.1371 16.2352 22.7052C16.2352 24.2343 16.5061 25.4842 16.784 26.7662C17.1998 28.6846 17.4818 30.5988 17.4311 32.5692C17.3695 34.962 16.9014 37.1484 16.0015 39.2313C15.896 39.4753 16.0084 39.7586 16.2524 39.864C16.4964 39.9695 16.7797 39.8571 16.8851 39.6131C17.8366 37.4108 18.3289 35.1024 18.3934 32.594C18.446 30.5464 18.1562 28.5564 17.725 26.5626C17.4465 25.2751 17.1979 24.1255 17.1979 22.7052C17.1979 20.5049 18.1658 19.0331 19.8456 17.9095Z" fill="#23CCB7"/>
<path d="M21.7242 16.2184C23.7214 15.8113 25.8707 16.3144 27.4527 17.5948C30.2784 19.8819 30.6542 24.0529 30.9587 27.4327L30.9742 27.6049C31.3678 31.9617 30.9173 36.1934 30.0099 40.4432C29.9544 40.7032 29.6987 40.8689 29.4387 40.8134C29.1787 40.7579 29.013 40.5022 29.0685 40.2422C29.9623 36.0561 30.3979 31.9251 30.0155 27.6915C30.0029 27.5513 29.9903 27.4092 29.9775 27.2653L29.9774 27.2632C29.7069 24.2089 29.3681 20.3835 26.8471 18.343C25.4946 17.2483 23.6396 16.8104 21.9165 17.1616C21.656 17.2147 21.4018 17.0466 21.3487 16.7862C21.2956 16.5257 21.4637 16.2715 21.7242 16.2184Z" fill="#23CCB7"/>
<path d="M29.3296 42.8382C29.3952 42.5806 29.2396 42.3186 28.9819 42.253C28.7243 42.1874 28.4624 42.3431 28.3968 42.6007C28.1058 43.7436 27.6574 44.7752 27.089 45.725C26.9524 45.9531 27.0267 46.2487 27.2548 46.3852C27.4828 46.5217 27.7784 46.4475 27.9149 46.2194C28.5276 45.1958 29.0139 44.0782 29.3296 42.8382Z" fill="#23CCB7"/>
<path d="M26.976 35.8535C27.24 35.8848 27.4286 36.1241 27.3974 36.388C26.9428 40.2294 25.9166 43.6553 24.2699 46.6268C24.1411 46.8593 23.8481 46.9433 23.6156 46.8145C23.3831 46.6856 23.2991 46.3927 23.4279 46.1602C25.0039 43.3165 25.9989 40.0149 26.4415 36.2749C26.4727 36.0109 26.712 35.8223 26.976 35.8535Z" fill="#23CCB7"/>
<path d="M26.8768 22.4527C26.5431 20.6698 25.0129 19.3059 23.1551 19.3059C20.6395 19.3059 18.8745 21.8416 19.4965 24.2008C20.5489 28.3651 20.7217 32.3786 20.0092 36.2441L20.0087 36.247C19.3905 39.7176 18.2032 42.8398 16.5838 45.4856C16.445 45.7123 16.5163 46.0086 16.743 46.1474C16.9697 46.2861 17.266 46.2148 17.4048 45.9881C19.0905 43.2342 20.3181 39.9981 20.9561 36.4172C21.6959 32.4025 21.5126 28.2483 20.4291 23.9624L20.4278 23.9574C19.9613 22.1927 21.2617 20.2686 23.1551 20.2686C24.5215 20.2686 25.6753 21.2738 25.93 22.6266C26.6306 26.6902 26.9955 30.4585 26.7357 33.703C26.7145 33.968 26.9121 34.2 27.177 34.2212C27.442 34.2424 27.674 34.0448 27.6952 33.7799C27.9645 30.4169 27.5844 26.5558 26.878 22.4595C26.8776 22.4572 26.8772 22.455 26.8768 22.4527Z" fill="#23CCB7"/>
<path d="M21.7189 43.2986C21.9554 43.4201 22.0485 43.7102 21.927 43.9466L20.6517 46.4285C20.5302 46.6649 20.2401 46.7581 20.0036 46.6366C19.7672 46.5151 19.674 46.225 19.7955 45.9885L21.0709 43.5067C21.1923 43.2702 21.4825 43.1771 21.7189 43.2986Z" fill="#23CCB7"/>
<path d="M23.5131 22.9169C23.4523 22.6581 23.1933 22.4976 22.9345 22.5584C22.6757 22.6192 22.5152 22.8782 22.576 23.137C24.1991 30.0462 23.9762 36.1131 21.9991 41.2814C21.9042 41.5296 22.0285 41.8079 22.2767 41.9029C22.525 41.9978 22.8033 41.8736 22.8982 41.6253C24.9596 36.2365 25.1692 29.9663 23.5131 22.9169Z" fill="#23CCB7"/>
</svg>
