<svg width="18" height="18" viewBox="0 0 18 18" fill="none" xmlns="http://www.w3.org/2000/svg">
<path d="M15.6665 8.99996C15.6663 7.51403 15.1698 6.07074 14.2556 4.89929C13.3414 3.72783 12.0621 2.89536 10.6208 2.53407C9.17944 2.17278 7.65871 2.30338 6.30007 2.90513C4.94144 3.50688 3.82278 4.54528 3.12174 5.85545C2.4207 7.16562 2.17747 8.67244 2.43066 10.1366C2.68386 11.6008 3.41897 12.9385 4.51926 13.9372C5.61955 14.9358 7.02195 15.5383 8.50376 15.6489C9.98557 15.7594 11.4619 15.3718 12.6982 14.5475L13.6232 15.9341C12.255 16.8489 10.6456 17.3359 8.99984 17.3333C4.39734 17.3333 0.666504 13.6025 0.666504 8.99996C0.666504 4.39746 4.39734 0.666626 8.99984 0.666626C13.6023 0.666626 17.3332 4.39746 17.3332 8.99996V10.25C17.3333 10.8739 17.1332 11.4815 16.7625 11.9833C16.3918 12.4852 15.8699 12.855 15.2735 13.0383C14.677 13.2216 14.0375 13.2089 13.4489 13.0019C12.8603 12.7949 12.3536 12.4046 12.0032 11.8883C11.447 12.4666 10.7356 12.8721 9.9546 13.0559C9.17356 13.2397 8.35606 13.1941 7.60031 12.9246C6.84455 12.6551 6.1827 12.1731 5.69426 11.5365C5.20582 10.8999 4.91157 10.1358 4.84687 9.33604C4.78217 8.53628 4.94977 7.73484 5.32952 7.02802C5.70928 6.3212 6.28505 5.73906 6.98765 5.35154C7.69024 4.96403 8.48979 4.78762 9.29022 4.84351C10.0906 4.89941 10.8579 5.18522 11.4998 5.66663H13.1665V10.25C13.1665 10.5815 13.2982 10.8994 13.5326 11.1338C13.767 11.3683 14.085 11.5 14.4165 11.5C14.748 11.5 15.066 11.3683 15.3004 11.1338C15.5348 10.8994 15.6665 10.5815 15.6665 10.25V8.99996ZM8.99984 6.49996C8.3368 6.49996 7.70091 6.76335 7.23207 7.23219C6.76323 7.70103 6.49984 8.33692 6.49984 8.99996C6.49984 9.663 6.76323 10.2989 7.23207 10.7677C7.70091 11.2366 8.3368 11.5 8.99984 11.5C9.66288 11.5 10.2988 11.2366 10.7676 10.7677C11.2364 10.2989 11.4998 9.663 11.4998 8.99996C11.4998 8.33692 11.2364 7.70103 10.7676 7.23219C10.2988 6.76335 9.66288 6.49996 8.99984 6.49996Z" fill="#667085"/>
</svg>
