<svg width="20" height="20" viewBox="0 0 20 20" fill="none" xmlns="http://www.w3.org/2000/svg">
<path d="M13.4484 2.82158V6.27718C13.4484 6.41525 13.3365 6.52718 13.1984 6.52718H4.91597C4.16918 6.52718 3.46681 6.74562 2.87505 7.12623C3.12366 6.73092 3.49454 6.41377 3.94793 6.23336L13.106 2.58929C13.2701 2.52397 13.4484 2.64491 13.4484 2.82158Z" stroke="#667085" stroke-width="1.5" stroke-linecap="round"/>
<path d="M2.38672 9.66651C2.38672 8.00965 3.72986 6.6665 5.38672 6.6665H15.2201C16.8769 6.6665 18.2201 8.00965 18.2201 9.6665V15.3332C18.2201 16.99 16.8769 18.3332 15.2201 18.3332H5.38672C3.72986 18.3332 2.38672 16.99 2.38672 15.3332V9.66651Z" stroke="#667085" stroke-width="1.5"/>
</svg>
