<svg width="20" height="20" viewBox="0 0 20 20" fill="none" xmlns="http://www.w3.org/2000/svg">
<circle cx="9.99984" cy="9.99984" r="5.83333" stroke="#667085" stroke-width="1.2"/>
<path d="M6.6665 5.21208H6.0665V6.36213L7.00976 5.70419L6.6665 5.21208ZM13.3332 5.21208L12.9899 5.70419L13.9332 6.36213V5.21208H13.3332ZM13.3332 14.7876H13.9332V13.6375L12.9899 14.2955L13.3332 14.7876ZM6.6665 14.7876L7.00976 14.2955L6.0665 13.6375V14.7876H6.6665ZM7.2665 3.6665C7.2665 2.89331 7.89331 2.2665 8.6665 2.2665V1.0665C7.23056 1.0665 6.0665 2.23056 6.0665 3.6665H7.2665ZM7.2665 5.21208V3.6665H6.0665V5.21208H7.2665ZM7.00976 5.70419C7.8572 5.11308 8.88715 4.7665 9.99984 4.7665V3.5665C8.63378 3.5665 7.36553 3.99295 6.32325 4.71997L7.00976 5.70419ZM9.99984 4.7665C11.1125 4.7665 12.1425 5.11308 12.9899 5.70419L13.6764 4.71997C12.6341 3.99295 11.3659 3.5665 9.99984 3.5665V4.7665ZM12.7332 3.6665V5.21208H13.9332V3.6665H12.7332ZM11.3332 2.2665C12.1064 2.2665 12.7332 2.8933 12.7332 3.6665H13.9332C13.9332 2.23056 12.7691 1.0665 11.3332 1.0665V2.2665ZM8.6665 2.2665H11.3332V1.0665H8.6665V2.2665ZM12.9899 14.2955C12.1425 14.8866 11.1125 15.2332 9.99984 15.2332V16.4332C11.3659 16.4332 12.6341 16.0067 13.6764 15.2797L12.9899 14.2955ZM9.99984 15.2332C8.88714 15.2332 7.8572 14.8866 7.00976 14.2955L6.32325 15.2797C7.36553 16.0067 8.63378 16.4332 9.99984 16.4332V15.2332ZM7.2665 16.3332V14.7876H6.0665V16.3332H7.2665ZM8.6665 17.7332C7.8933 17.7332 7.2665 17.1064 7.2665 16.3332H6.0665C6.0665 17.7691 7.23056 18.9332 8.6665 18.9332V17.7332ZM11.3332 17.7332H8.6665V18.9332H11.3332V17.7332ZM12.7332 16.3332C12.7332 17.1064 12.1064 17.7332 11.3332 17.7332V18.9332C12.7691 18.9332 13.9332 17.7691 13.9332 16.3332H12.7332ZM12.7332 14.7876V16.3332H13.9332V14.7876H12.7332Z" fill="#667085"/>
<circle cx="9.99999" cy="9.99999" r="3.64062" stroke="#667085" stroke-width="1.5"/>
<path d="M10 8.09619V9.95054C10 9.9818 10.0132 10.0116 10.0363 10.0327L11.155 11.0519" stroke="#667085" stroke-width="1.5" stroke-linecap="round"/>
</svg>
