<svg width="100" height="100" viewBox="0 0 100 100" fill="none" xmlns="http://www.w3.org/2000/svg">
<rect x="32.25" y="10.375" width="35.5" height="79.25" rx="17.75" stroke="#141414" stroke-width="2"/>
<mask id="mask0_1540_7264" style="mask-type:alpha" maskUnits="userSpaceOnUse" x="0" y="0" width="100" height="100">
<path fill-rule="evenodd" clip-rule="evenodd" d="M100 0H0V100H100V0ZM50 9.375C39.6447 9.375 31.25 17.7697 31.25 28.125V31.25C31.25 41.6053 39.6447 50 50 50C60.3553 50 68.75 41.6053 68.75 31.25V28.125C68.75 17.7697 60.3553 9.375 50 9.375Z" fill="#C4C4C4"/>
</mask>
<g mask="url(#mask0_1540_7264)">
<path opacity="0.5" d="M73.4596 35.9375C76.6582 37.7842 79.1954 39.9766 80.9265 42.3894C82.6576 44.8023 83.5485 47.3884 83.5485 50C83.5485 52.6116 82.6576 55.1977 80.9265 57.6106C79.1954 60.0234 76.6582 62.2158 73.4596 64.0625" stroke="#141414" stroke-linecap="round"/>
<path opacity="0.5" d="M73.4596 35.9375C78.6032 38.9072 81.9865 42.7408 83.1245 46.8889C84.2624 51.037 83.0966 55.2866 79.7942 59.0287" stroke="#141414" stroke-linecap="round"/>
<path opacity="0.5" d="M73.4596 35.9375C77.3033 38.1567 80.1828 40.8696 81.8626 43.8545C83.5424 46.8393 83.9748 50.0113 83.1245 53.1111" stroke="#141414" stroke-linecap="round"/>
<path d="M73.4596 35.9375C78.6032 38.9072 81.9865 42.7408 83.1245 46.8889" stroke="#141414" stroke-linecap="round"/>
<path d="M57.2218 26.5625L82.8348 30.5248L64.0848 41.3502L57.2218 26.5625Z" fill="#141414"/>
<path opacity="0.5" d="M24.7455 64.0625C21.5469 62.2158 19.0096 60.0234 17.2786 57.6106C15.5475 55.1977 14.6565 52.6116 14.6565 50C14.6565 47.3884 15.5475 44.8023 17.2786 42.3894C19.0096 39.9766 21.5469 37.7842 24.7455 35.9375" stroke="#141414" stroke-linecap="round"/>
<path opacity="0.5" d="M24.7455 64.0625C19.6018 61.0928 16.2186 57.2592 15.0806 53.1111C13.9427 48.963 15.1085 44.7134 18.4109 40.9713" stroke="#141414" stroke-linecap="round"/>
<path opacity="0.5" d="M24.7455 64.0625C20.9017 61.8433 18.0222 59.1304 16.3424 56.1455C14.6626 53.1607 14.2302 49.9887 15.0806 46.8889" stroke="#141414" stroke-linecap="round"/>
<path d="M24.7455 64.0625C19.6018 61.0928 16.2186 57.2592 15.0806 53.1111" stroke="#141414" stroke-linecap="round"/>
<path d="M40.9833 73.4375L15.3703 69.4752L34.1203 58.6498L40.9833 73.4375Z" fill="#141414"/>
</g>
</svg>
